<svg width="108" height="81" viewBox="0 0 108 81" fill="none" xmlns="http://www.w3.org/2000/svg">
<path d="M66.0705 26.7261C65.7334 28.0917 64.5148 29.1051 63.0593 29.1051C61.3428 29.1051 59.9517 27.6997 59.9517 25.9658C59.9517 24.4947 60.9548 23.2637 62.306 22.9238C61.651 22.6875 60.9462 22.5573 60.2102 22.5573C56.7748 22.5573 53.9883 25.3716 53.9883 28.8433C53.9883 32.315 56.7748 35.1294 60.2102 35.1294C63.6456 35.1294 66.4327 32.315 66.4327 28.8433C66.4327 28.1004 66.3044 27.3878 66.0698 26.7261" fill="white"/>
<path d="M60.2109 21.383C66.3585 21.383 71.8186 24.353 75.2638 28.9497C71.8186 33.5464 66.3585 36.517 60.2109 36.517C54.0633 36.517 48.6039 33.5464 45.1581 28.9497C48.6039 24.353 54.0639 21.383 60.2109 21.383ZM60.2109 16.3975C56.4741 16.3975 52.7477 17.2973 49.4345 18.9991C46.2349 20.6431 43.3956 23.0432 41.2242 25.9406L38.9688 28.9497L41.2242 31.9594C43.3956 34.8568 46.2349 37.2568 49.4345 38.9009C52.7477 40.6033 56.4741 41.5025 60.2109 41.5025C63.9477 41.5025 67.6747 40.6033 70.988 38.9009C74.1876 37.2575 77.0263 34.8568 79.1983 31.9594L81.4537 28.9497L79.1983 25.9406C77.0263 23.0426 74.1876 20.6425 70.988 18.9991C67.6747 17.2973 63.9484 16.3975 60.2109 16.3975Z" fill="white"/>
<path d="M29.1783 50.2445L27.1782 43.8251H13.9106L11.7877 50.2445H0.703125L16.3907 7.1062H24.5722L40.2684 50.2445H29.1783ZM20.755 23.4675L16.8745 34.9791H24.3886L20.755 23.4675Z" fill="#EC1C24"/>
<path d="M30.2814 80.0962L27.5532 78.2853C26.4273 77.538 26.1117 75.9969 26.8509 74.8595L45.0174 47.1739C45.7566 46.0372 47.2827 45.7178 48.408 46.4657L51.1368 48.276C52.2627 49.0233 52.5782 50.565 51.8391 51.7012L33.6725 79.3867C32.9328 80.5241 31.4072 80.8429 30.2814 80.0962Z" fill="white"/>
<path d="M66.2954 1.08585C69.9917 2.0192 73.4265 3.33582 76.523 5.37183L70.1292 15.0061C66.1137 12.3171 61.8035 11.4315 57.1968 12.3493C52.5213 13.2808 48.8668 15.7541 46.2332 19.7678C43.5989 23.7822 42.7223 28.137 43.6376 32.8255C44.5597 37.548 47.0073 41.2405 50.9467 43.9085C54.8855 46.5758 59.1963 47.462 63.8717 46.5306C68.5472 45.5991 72.2024 43.1258 74.8704 39.1047L84.4067 45.5631C82.3152 48.6701 79.6981 51.3003 76.5635 53.487C73.4289 55.6749 69.9359 57.1342 66.0572 57.9069C58.2994 59.4536 51.1038 57.9795 44.5106 53.5143C37.9179 49.0491 33.8354 42.8846 32.305 35.0469C30.7745 27.2104 32.2338 19.9408 36.6471 13.2461C41.061 6.55077 47.1638 2.42665 54.9217 0.881194C54.9217 0.881194 61.5979 -0.0999126 66.2954 1.08585Z" fill="white"/>
<path d="M97.1856 16.0565V50.2433H87.0667V16.0565H72.6406L78.7637 6.46124H107.296V16.0565H97.1856Z" fill="#EC1C24"/>
<path d="M97.0068 62.6907H92.373V64.6579H97.0068V62.6907Z" fill="#EC1C24"/>
<path d="M97.0068 66.1843H92.373V79.6494H97.0068V66.1843Z" fill="#EC1C24"/>
<path d="M95.4561 62.9618H93.7188V64.6586H95.4561V62.9618Z" fill="#EC1C24"/>
<path d="M94.1104 62.9618H92.373V64.6586H94.1104V62.9618Z" fill="#EC1C24"/>
<path d="M94.0163 59.8188H92.5098V61.3413H94.0163V59.8188Z" fill="#EC1C24"/>
<path d="M95.5006 58.2998H93.9941V59.8205H95.5006V58.2998Z" fill="#EC1C24"/>
<path d="M97.0059 56.7786H95.5V58.2998H97.0059V56.7786Z" fill="#EC1C24"/>
<path d="M94.0163 55.3928H92.5098V56.9135H94.0163V55.3928Z" fill="#EC1C24"/>
<path d="M97.0059 59.8188H95.5V61.5193H97.0059V59.8188Z" fill="#EC1C24"/>
<path d="M97.0059 61.3424H95.5V62.8631H97.0059V61.3424Z" fill="#EC1C24"/>
<path d="M95.8911 61.3424H93.9941V62.8631H95.8911V61.3424Z" fill="#EC1C24"/>
<path d="M67.2441 79.6492L77.1476 60.2925H80.9427L91.2833 79.6492H86.0909L79.2637 66.5277L72.3917 79.6492H67.2441Z" fill="#EC1C24"/>
<path d="M72.002 76.2669H82.8526L80.3172 71.584H73.797L72.002 76.2669Z" fill="#EC1C24"/>
</svg>
