<svg width="78" height="82" viewBox="0 0 78 82" fill="none" xmlns="http://www.w3.org/2000/svg">
<g clip-path="url(#clip0_598_29936)">
<path d="M74.6863 21.8721H3.45508V78.4973H74.6863V21.8721Z" fill="white"/>
<path d="M44.2173 63.3542C43.4382 64.1798 42.6711 65.015 41.9277 65.8663C43.4293 67.0336 44.9339 68.1977 46.4444 69.3586H72.771V63.3542H44.2143H44.2173Z" fill="white"/>
<path d="M72.7719 52.2775V46.1377H60.7087C60.7533 46.4279 60.7741 46.7246 60.7741 47.0148V47.1889H60.7682C60.7146 47.9242 60.3311 48.6078 59.9624 49.1979C59.8494 49.3753 59.7364 49.5526 59.6115 49.7268C59.5282 49.8396 59.4212 49.9589 59.4093 50.0073C59.335 50.2234 59.3142 50.4846 59.2785 50.7554C59.2101 51.2585 59.2041 51.926 58.6035 52.2742H72.7689L72.7719 52.2775Z" fill="white"/>
<path d="M72.7703 46.1379V38.2148H56.4075C56.4373 38.4212 56.4551 38.6276 56.4551 38.8404C56.4551 39.379 56.3629 39.9239 56.1875 40.4302C57.255 41.0655 58.1024 42.0812 58.2451 43.3292C59.2709 43.5807 60.1065 44.2256 60.4752 45.2156C60.5852 45.5155 60.6595 45.8251 60.7041 46.1379H72.7673H72.7703Z" fill="#EC1C24"/>
<path d="M46.4453 69.3618C46.6505 69.5198 46.8527 69.6778 47.0578 69.8358C47.0965 69.8649 50.8371 73.2508 55.089 77.1043H72.775V69.3618H46.4483H46.4453Z" fill="#EC1C24"/>
<path d="M46.0227 60.3619L45.0861 62.2999C45.1098 62.3031 45.1455 62.3096 45.1872 62.3193C45.089 62.4225 44.9939 62.5289 44.8958 62.6321C44.6668 62.8707 44.4438 63.1125 44.2148 63.3544H72.7716V52.2744H58.6062C58.5586 52.3002 58.511 52.326 58.4575 52.3486C58.0591 52.5163 57.6934 52.6227 57.4198 52.8774C57.1909 53.0903 56.9649 53.2999 56.7359 53.5062C56.2572 53.9416 55.7517 54.364 55.3354 54.8316C54.9132 55.2992 54.3126 55.5926 53.8101 55.8925C53.1708 56.2698 52.5374 56.6471 51.9219 57.0534C51.8625 57.0921 51.803 57.1308 51.7435 57.1695L51.6276 56.7277L50.685 57.3984L49.5432 58.2916L48.3033 58.9624L46.766 59.6879L46.0227 60.3587V60.3619Z" fill="#2B388F"/>
<path d="M56.8118 52.3324C56.8742 52.3002 56.9337 52.2744 56.9902 52.2486C57.2727 52.1196 57.5492 52.0229 57.7662 51.9197C57.9209 51.8455 58.0279 51.7617 58.0666 51.6972C58.1201 51.6262 58.2093 51.1941 58.2628 50.7975C58.3312 50.3815 58.3639 50.0171 58.4709 49.8043C58.9051 49.2271 59.7792 47.9114 59.7733 47.1407C59.7733 47.0988 59.7733 47.0665 59.7733 47.044C59.7614 46.1378 59.6395 44.3224 57.6622 43.9451L57.5908 44.2192L57.5135 44.2482C57.5135 44.2482 56.9456 44.4546 56.4698 44.7254C56.6066 44.9512 56.7047 45.1769 56.7107 45.3962C56.7166 45.5252 56.6512 45.6864 56.5234 45.7477L56.4728 45.7735L56.4223 45.7573C55.9257 45.5993 55.4618 45.0318 54.9802 44.4449L54.9147 44.3643L54.9534 44.2643C55.0366 44.016 55.2299 43.8677 55.4232 43.8741C55.7384 43.887 56.0298 44.145 56.2736 44.4449C56.6393 44.1127 57.0824 43.7 57.341 43.4581C57.2578 42.8164 56.8742 41.7974 55.6046 41.0654L55.5273 41.246L55.4529 41.2621C55.4529 41.2621 55.1199 41.3363 54.7423 41.4556L54.769 41.5201C54.769 41.5201 54.6769 41.5782 54.5371 41.6297L54.7869 54.2221C55.3964 53.6288 56.5115 52.6356 56.8207 52.3324H56.8118ZM56.0298 52.1647L55.3845 52.9838L55.3489 50.5589L56.0684 51.565L56.8266 51.2973L56.9456 51.6133L56.0298 52.1647ZM58.6553 44.8125C59.2411 44.9802 59.3897 45.5123 59.3778 45.8444C59.3778 46.0604 59.3362 46.212 59.3332 46.2217L59.0359 46.1378C59.0448 46.0766 59.0537 46.0218 59.0537 45.9766C59.0686 45.4961 58.5423 45.1253 58.5364 45.1253L58.6553 44.8093V44.8125Z" fill="white"/>
<path d="M55.3199 38.434C55.3199 38.4405 55.3199 38.4469 55.3199 38.4469L55.0226 38.5276C54.9245 38.118 54.6955 37.8214 54.4458 37.615L54.4933 39.9916C54.6212 39.8916 54.8501 39.6884 55.1326 39.3531L55.3824 39.5466L55.0821 40.2431L55.0464 40.3302L54.9631 40.3398L54.5052 40.3914L54.5171 41.0493C54.8561 40.8171 55.201 40.572 55.4151 40.4204V40.414C55.5905 39.9883 55.8879 39.1145 55.8879 38.2341C55.8879 37.7311 55.7927 37.2312 55.531 36.7991L55.5429 36.7895L55.1029 36.3445L55.0494 36.2929C54.865 36.1736 54.6598 36.1026 54.416 36.0671L54.4339 37.0152C55.094 37.4183 55.2902 38.3051 55.317 38.434H55.3199Z" fill="white"/>
<path d="M7.91427 39.9852V39.9916C7.91427 39.9948 7.91427 39.9981 7.91427 40.0045L7.61395 39.9368C7.61395 39.9368 7.84291 38.2793 9.18095 38.2374L9.18689 37.4828C9.10066 37.4764 9.01741 37.4731 8.9401 37.4731C8.91036 37.4731 8.88063 37.4731 8.8509 37.4764H8.84792C8.47327 37.486 8.1908 37.5602 7.94698 37.6924L7.93508 37.7085L7.86075 37.7988L7.36419 38.3019L7.29282 38.4148C7.11442 38.7888 7.04008 39.1951 7.03711 39.6111C7.03711 40.5366 7.39392 41.475 7.59017 41.9071C7.89345 42.1038 8.4584 42.4682 8.8955 42.7423C8.94605 42.7616 8.99362 42.7842 9.03525 42.8003C9.07093 42.8003 9.10958 42.7939 9.14526 42.7874L9.17797 38.6308C8.84495 38.7598 8.09565 39.1339 7.91724 39.9787L7.91427 39.9852ZM8.52382 41.8458L8.03915 41.8103L7.95292 41.8039L7.59017 41.0332L7.83399 40.83C8.28297 41.3299 8.60113 41.5169 8.6041 41.5169L8.52382 41.8426V41.8458Z" fill="white"/>
<path d="M8.97086 44.5737C8.843 44.5737 8.78353 44.3964 8.78353 44.3415C8.78353 44.2706 8.7984 44.2061 8.82219 44.1255C8.93518 43.7031 9.0452 43.4386 9.12845 43.2806L8.66757 43.1194C8.43862 43.0678 8.28995 42.984 8.28103 42.9775L8.30481 42.913C7.92124 42.8066 7.58822 42.7518 7.58822 42.7518L7.51091 42.7389L7.47523 42.6615L7.42766 42.5615C6.18477 43.3451 5.83688 44.3835 5.77443 45.0284C6.03907 45.2574 6.49697 45.6508 6.8746 45.9668C7.1095 45.6475 7.39792 45.3734 7.72202 45.3638C7.90935 45.3573 8.09667 45.4992 8.18588 45.7314L8.22751 45.8313L8.16209 45.9152C7.70418 46.5214 7.25817 47.1083 6.76756 47.2857L6.71403 47.305L6.66349 47.2824C6.52374 47.2244 6.45535 47.0503 6.46129 46.9181C6.46427 46.7052 6.55347 46.4827 6.67835 46.2602C6.19666 46.0119 5.61982 45.8281 5.61684 45.8281L5.53656 45.8023L5.51277 45.7153L5.45628 45.5314C3.64844 45.9539 3.46111 47.5114 3.44922 48.4788C3.44922 48.5949 3.45517 48.7045 3.45814 48.798C3.47895 49.5816 4.39774 50.8554 4.85267 51.4165L4.73968 51.5293L4.86754 51.4326C4.96864 51.6196 5.01621 51.984 5.09649 52.3968C5.16786 52.7934 5.26895 53.2223 5.32247 53.2868C5.3641 53.3513 5.47709 53.4287 5.63468 53.4964C5.83688 53.5835 6.10448 53.6705 6.41372 53.7963C6.47319 53.8156 6.53563 53.8414 6.59807 53.8704L6.58023 53.922C6.58023 53.922 6.5951 53.9382 6.60402 53.9446L6.6397 53.8962C6.99354 54.2219 8.64676 55.5731 9.0333 55.9891L9.12548 44.506C9.07493 44.5382 9.02438 44.5608 8.96789 44.5737H8.97086ZM4.14203 47.592C4.14203 47.6468 4.14797 47.7081 4.16581 47.7726L3.87442 47.8758C3.87442 47.8758 3.81198 47.6855 3.81198 47.4469C3.80306 47.1148 3.95173 46.6182 4.50181 46.4344L4.62669 46.7439C4.62669 46.7439 4.12716 47.1212 4.13905 47.5888L4.14203 47.592ZM7.40684 53.6673L6.47319 53.1578L6.58023 52.8353L7.34737 53.0707L8.03126 52.0388L8.07883 54.4606L7.40684 53.6673Z" fill="white"/>
<path d="M7.83366 40.8333L7.58984 41.0364L7.9526 41.8071L8.03883 41.8136L8.5235 41.849L8.60378 41.5233C8.60378 41.5233 8.28265 41.3363 7.83366 40.8365V40.8333Z" fill="black"/>
<path d="M7.34982 53.0707L6.5797 52.8353L6.47266 53.1578L7.40631 53.6673L8.08128 54.4606L8.03073 52.0388L7.34982 53.0707Z" fill="black"/>
<path d="M10.2729 47.3277L10.267 47.3245H10.261L10.1094 47.6179C10.1094 47.6179 13.8291 50.1557 16.6182 52.0293L16.6985 51.8809L16.636 52.0389L18.8958 53.1353L19.0296 52.8258L10.2729 47.3245V47.3277Z" fill="black"/>
<path d="M13.3859 45.1124L19.642 51.8004L19.8679 51.5682L18.1969 49.2658L18.0779 49.3722L18.1671 49.2335C16.2612 47.6406 13.9776 45.264 13.6327 44.906L13.5881 44.8577L13.377 45.106C13.377 45.106 13.377 45.106 13.3829 45.1124H13.3859Z" fill="black"/>
<path d="M7.61133 39.9334L7.91164 40.0011C7.91164 40.0011 7.91164 39.9947 7.91164 39.9882C7.91164 39.9882 7.91164 39.9882 7.91164 39.9818C8.09005 39.1401 8.83935 38.7628 9.17237 38.6338C9.2705 38.5952 9.33591 38.579 9.33591 38.5758L9.3151 38.234C9.27942 38.234 9.24076 38.2275 9.19913 38.2275C9.19021 38.2275 9.18427 38.2275 9.17832 38.2275C7.84028 38.2695 7.6143 39.9237 7.61133 39.9269V39.9334Z" fill="black"/>
<path d="M3.81055 47.4471C3.81055 47.6889 3.86704 47.8631 3.87299 47.8759L4.16438 47.7728C4.14654 47.7083 4.1406 47.647 4.1406 47.5922C4.12573 47.1246 4.62824 46.7505 4.62824 46.7473L4.50335 46.4377C3.95327 46.6183 3.8046 47.1149 3.81352 47.4503L3.81055 47.4471Z" fill="black"/>
<path d="M20.8489 61.6613L19.0976 60.2263L18.9043 60.494C18.9043 60.494 19.3533 60.9422 19.8201 61.5033C20.2602 62.0192 20.7092 62.6642 20.8043 63.035L20.8192 63.1092L21.1195 63.0415C21.1195 63.0415 21.1135 63.0221 21.1135 63.0157L20.8489 61.6645V61.6613Z" fill="black"/>
<path d="M23.7656 49.4463C23.7656 49.4463 24.2533 50.72 24.2473 51.3779C24.2473 51.4649 24.2384 51.5391 24.2235 51.5939L24.5179 51.6939C24.5179 51.6874 24.5209 51.681 24.5238 51.6745L24.7736 50.7104L24.0422 49.2915L23.7686 49.4463H23.7656Z" fill="black"/>
<path d="M55.0439 40.3333L55.0796 40.2462L55.3799 39.5497L55.1302 39.3562C54.8507 39.6948 54.6187 39.8947 54.4909 39.9947C54.4225 40.0495 54.3809 40.0753 54.3809 40.0785L54.473 40.3978H54.4998L54.9577 40.343L55.041 40.3333H55.0439Z" fill="black"/>
<path d="M56.0692 51.5649L55.3496 50.5588L55.3853 52.9838L56.0305 52.1647L56.9463 51.6101L56.8274 51.2941L56.0692 51.5649Z" fill="black"/>
<path d="M44.5061 52.126L44.521 52.1164L46.7243 50.9297L46.6589 50.7749L46.7421 50.92C49.4063 48.9691 52.9417 46.3442 53.0904 46.2346H53.0933L52.9298 45.9443H52.9238C52.9238 45.9443 52.9209 45.9443 52.9149 45.9508L44.3574 51.8229L44.5031 52.126H44.5061Z" fill="black"/>
<path d="M49.7395 43.8644L49.5195 43.6226L49.5106 43.6355C49.347 43.8225 47.0307 46.4441 45.095 48.1951L45.1902 48.3274L45.0683 48.2242L43.4805 50.6007L43.7154 50.8232L49.7395 43.8612V43.8644Z" fill="black"/>
<path d="M55.0256 38.5307L55.3229 38.45C55.3229 38.45 55.3229 38.4468 55.3229 38.4371C55.2962 38.3114 55.0999 37.4246 54.4398 37.0183C54.2495 36.9022 54.0206 36.8216 53.7411 36.8184C53.6846 36.8184 53.6221 36.8184 53.5597 36.8313L53.5508 37.1699C53.5508 37.1699 54.0295 37.273 54.4488 37.6213C54.6985 37.8277 54.9304 38.1211 55.0256 38.5339V38.5307Z" fill="black"/>
<path d="M59.0545 45.9798C59.0545 46.0249 59.0485 46.0797 59.0366 46.141L59.334 46.2249C59.334 46.2249 59.3786 46.0604 59.3786 45.8476C59.3905 45.5154 59.2418 44.9834 58.656 44.8157L58.5371 45.1317C58.5371 45.1317 59.0664 45.5025 59.0545 45.983V45.9798Z" fill="black"/>
<path d="M42.9302 62.1708C42.9302 62.1708 42.9302 62.1676 42.9302 62.1643L42.9421 62.0966C43.1116 61.2905 44.7529 59.4846 44.7529 59.4814L44.5508 59.2202L44.5389 59.2299L42.85 60.7294L42.6329 62.0805C42.6329 62.0805 42.6299 62.1063 42.627 62.1192L42.9302 62.174V62.1676V62.1708Z" fill="black"/>
<path d="M39.2336 48.5078L38.5527 49.9557L38.5735 50.0266L38.8412 50.9263C38.8412 50.9263 38.8412 50.9263 38.8412 50.9328L39.1296 50.8167C39.1296 50.8167 39.1296 50.8038 39.1266 50.8006V50.7844C39.1058 50.7232 39.0969 50.6425 39.0969 50.5458C39.0939 49.8751 39.5131 48.6561 39.5131 48.6529L39.2336 48.511V48.5078Z" fill="black"/>
<path d="M23.3142 42.5712C23.9148 43.5612 24.5243 45.2122 24.5243 47.8564L24.8276 47.879L25.342 43.616L22.3567 40.2849L22.0059 41.1814L22.1367 41.2555C22.1367 41.2555 22.7135 41.578 23.3171 42.5712H23.3142Z" fill="black"/>
<path d="M38.5359 46.4022C38.6429 43.7612 39.3179 42.1424 39.9572 41.1847C40.5964 40.2237 41.1882 39.9399 41.1882 39.9303L41.319 39.8625L41.2655 39.711L41.0841 39.1821L41.0038 38.95L37.8906 42.1295L38.2326 46.4118L38.5359 46.4054V46.4022Z" fill="black"/>
<path d="M45.0789 62.3159L45.0878 62.2998C45.0343 62.2901 45.0254 62.2934 45.0789 62.3159Z" fill="#2B388F"/>
<path d="M1.35547 1.41479V33.8034H1.37331V77.1043V80.9384H76.4076V79.9807H76.4135V33.8034V1.41479H1.35547ZM10.6088 56.9598C9.92189 56.5889 9.2053 56.1794 9.0596 56.0085C9.05365 56.002 9.04473 55.9924 9.03879 55.9859C8.64927 55.5732 6.99902 54.2188 6.64518 53.8931L6.6095 53.9415C6.6095 53.9415 6.59464 53.9253 6.58572 53.9189L6.60356 53.8673C6.54409 53.8383 6.47867 53.8125 6.4192 53.7899C6.11294 53.6674 5.84236 53.5835 5.64017 53.4965C5.48258 53.4287 5.36959 53.3514 5.32796 53.2869C5.27444 53.2224 5.17037 52.7935 5.10198 52.3969C5.0217 51.9841 4.97412 51.6197 4.87303 51.4327L4.74517 51.5294L4.85816 51.4166C4.4062 50.8555 3.48741 49.5817 3.46362 48.7981C3.45768 48.7014 3.4547 48.595 3.4547 48.4789C3.4666 47.5115 3.6569 45.954 5.46176 45.5315L5.51826 45.7153L5.54205 45.8024L5.62233 45.8282C5.62233 45.8282 6.19917 46.0088 6.68384 46.2603C6.55895 46.4828 6.46975 46.7053 6.46678 46.9181C6.45786 47.0504 6.52625 47.2245 6.66897 47.2825L6.71952 47.3051L6.77304 47.2858C7.26366 47.1084 7.70967 46.5215 8.16758 45.9153L8.23299 45.8314L8.19136 45.7315C8.09919 45.4961 7.91483 45.3574 7.72751 45.3638C7.40341 45.3767 7.11498 45.6508 6.88008 45.9669C6.50246 45.6508 6.04455 45.2607 5.77992 45.0285C5.83939 44.3835 6.19025 43.3452 7.43314 42.5616L7.48072 42.6616L7.5164 42.739L7.59371 42.7519C7.59371 42.7519 7.92673 42.8099 8.3103 42.9131L8.28651 42.9776C8.28651 42.9776 8.4441 43.0679 8.67306 43.1162L9.13394 43.2807C9.05068 43.4387 8.94066 43.7031 8.82767 44.1256C8.80389 44.2062 8.79199 44.2739 8.78902 44.3416C8.78902 44.3964 8.84849 44.5738 8.97635 44.5738C9.03581 44.5609 9.08636 44.5383 9.13394 44.5061C9.3064 44.3932 9.44912 44.1707 9.72267 43.8708C10.0438 43.4903 10.4541 42.9969 10.8912 42.5423C11.5811 41.7845 12.039 41.5039 12.1014 41.1105C12.0746 40.859 11.8754 40.8461 11.7446 40.8461C11.59 40.8461 11.3789 40.8751 11.0875 40.9299C10.4363 41.0686 10.2163 41.8425 10.1657 42.0134C9.8208 42.5681 9.45804 42.7486 9.14583 42.7938C9.10718 42.8002 9.0715 42.8035 9.03581 42.8067C8.99419 42.7873 8.94661 42.768 8.89606 42.7486C8.45897 42.4745 7.89105 42.1102 7.59073 41.9134C7.39449 41.4781 7.03768 40.543 7.03768 39.6175C7.03768 39.2015 7.11498 38.792 7.29339 38.4211L7.36475 38.3083L7.86131 37.8052L7.93565 37.7149V37.7052C7.93565 37.7052 7.94457 37.6988 7.94754 37.6988C8.19136 37.5634 8.47681 37.4924 8.84849 37.4827H8.85146C8.8812 37.4827 8.9139 37.4795 8.94066 37.4795C9.01797 37.4795 9.10123 37.4827 9.18746 37.4892C9.66321 37.515 10.2609 37.6182 11.0369 37.7859L11.1886 37.8213L11.2153 37.6472C11.2153 37.6472 11.2153 37.6408 11.2153 37.6375L11.7862 38.1825L12.146 38.563L12.6931 39.3144L13.2135 39.9915L13.2908 39.9851C14.8697 39.8335 14.9618 38.5824 14.9618 38.5469V38.4437L13.713 37.6117L13.6892 37.8826C13.6743 38.1148 13.4959 38.6469 13.3889 38.9596C13.2521 38.7823 13.0767 38.6017 12.8775 38.4179L12.6455 38.1728L11.7 37.4634L11.477 37.3247C11.4027 37.2731 11.3402 37.2312 11.2807 37.1925C11.3759 36.5766 11.474 36.1316 12.6277 35.5093C12.7526 35.4996 12.925 35.4899 13.1183 35.4899C13.7249 35.4835 14.5693 35.5834 14.9143 35.9156H14.9172C14.9648 35.9575 14.9945 35.9801 14.9945 35.9865C15.2057 36.1897 15.3662 36.4154 15.506 36.596L15.5208 36.6185H15.5238C15.6428 36.7669 15.729 36.9023 15.9163 36.9281C16.288 37.257 19.0711 39.8013 20.2456 42.5294L20.4091 42.9066L20.8581 41.4233L20.7868 41.3491C20.7868 41.3491 18.0601 38.4792 16.6686 36.9152C16.8381 36.9378 17.0135 36.97 17.1681 37.0216C17.5993 37.1635 22.0088 38.9242 23.0079 39.482C23.7602 39.898 25.0447 40.7913 25.6245 41.6297C25.8237 41.9263 25.9248 42.1811 25.9308 42.3907V42.481C25.9308 43.7225 25.4937 48.6433 25.4431 49.2818C25.4253 49.543 25.3599 50.1976 25.3599 50.9587C25.3599 51.3069 25.3718 51.6842 25.4134 52.055C25.4996 52.8741 25.6989 53.6867 26.1776 54.1898C26.8793 54.9218 28.9012 56.4051 30.9053 57.9465C29.2313 59.5718 27.4948 61.1228 25.7137 62.6513C24.5065 63.6864 23.2904 64.7183 22.0713 65.7502C21.1376 64.7667 20.54 64.2024 20.0256 63.7155C19.8234 63.5252 19.6361 63.3478 19.4458 63.1608C19.4279 63.1447 19.4101 63.1253 19.3803 63.0931C19.3803 63.0931 19.3744 63.0899 19.3714 63.0834C18.4378 62.145 18.3218 61.4582 17.9055 61.0519C17.5636 60.7423 17.0016 60.5101 16.7132 60.4037H16.7072L16.6805 60.3908C16.6359 60.3747 16.5972 60.3618 16.5705 60.3553C16.4039 60.3102 15.2027 59.9426 14.7061 59.5298C14.7032 59.5298 14.7002 59.5298 14.6972 59.5234L14.6823 59.5105C14.3434 59.2235 13.6357 58.7688 12.9667 58.3528C12.9399 58.3367 12.9132 58.3173 12.8894 58.3012C12.8031 58.2496 12.7169 58.198 12.6366 58.1464C12.598 58.1239 12.5593 58.0981 12.5236 58.0755C12.3928 57.9949 12.259 57.9143 12.1252 57.8336C12.0419 57.7821 11.9646 57.7337 11.8933 57.6918C11.6703 57.5563 11.3491 57.3822 11.0012 57.1919C10.8734 57.1242 10.7426 57.0533 10.6117 56.9823L10.6088 56.9598ZM16.0769 60.8681L15.726 60.7101C15.8895 60.7617 15.9847 60.8036 16.0769 60.8681ZM11.593 77.1043C13.6208 75.0405 15.7914 72.8703 18.0126 70.7065L18.1285 70.5937C19.4249 69.3328 20.7333 68.0817 22.0356 66.8563L22.1397 66.7595C22.2467 66.6596 22.3508 66.5596 22.4578 66.4596L22.4668 66.45L22.4786 66.4371L23.0436 65.8728L22.5797 66.2694C22.9157 65.9856 23.2488 65.6954 23.5848 65.4116C25.681 63.48 27.7327 61.6581 29.6684 60.0522C29.9241 59.8394 30.1887 59.6104 30.4563 59.375C30.8102 59.0461 31.1551 58.7172 31.503 58.3818L31.5357 58.4044L31.6249 58.3206C31.6487 58.3012 31.6695 58.2787 31.6933 58.2561L31.7765 58.1755C31.8182 58.1368 31.8598 58.0981 31.8984 58.0594L31.9995 57.9659C33.846 56.2245 35.6152 54.38 36.3378 53.5674C36.3378 53.5674 36.3407 53.5674 36.3407 53.561C36.7035 53.1482 36.986 52.5452 37.2119 51.8906L37.2238 51.6906L37.2863 51.394L37.5063 50.7652L37.7263 49.8461C37.8066 49.3689 37.8483 48.9626 37.8483 48.6949C37.8483 48.6304 37.8483 48.5756 37.8393 48.5305L37.6877 48.5498L37.8393 48.5272C37.768 47.8791 37.1257 42.7228 37.1138 41.6619L37.0216 41.6523H37.1138C37.1138 41.4394 37.2119 41.1685 37.3963 40.888C37.9434 40.027 39.1952 39.079 39.9356 38.6307C40.9109 38.0309 45.258 36.0832 45.6862 35.9252C45.8378 35.8672 46.0103 35.8253 46.1798 35.7962C44.8417 37.4183 42.2222 40.3979 42.2192 40.4011L42.1478 40.4817L42.6474 41.9425L42.796 41.562C43.8784 38.7823 46.5871 36.1155 46.9321 35.7769C47.1134 35.7414 47.1937 35.6028 47.3067 35.4577L47.3127 35.448C47.3156 35.4415 47.3186 35.4383 47.3246 35.4319C47.4584 35.2416 47.61 35.0094 47.7973 34.8159C47.8152 34.7966 47.8449 34.7708 47.8925 34.7257C48.2879 34.3129 49.3941 34.2065 49.9828 34.2129C50.0512 34.2129 50.1136 34.2129 50.1642 34.2162C51.3357 34.7869 51.4517 35.2319 51.5676 35.8414C51.5111 35.8865 51.4457 35.9349 51.3714 35.9897L51.1722 36.1219L50.2593 36.8572L50.0244 37.1248C49.8252 37.3215 49.6557 37.515 49.5219 37.6988C49.403 37.3925 49.2067 36.8636 49.1829 36.6314L49.1502 36.3606L47.9282 37.2506L47.9341 37.3538C47.9341 37.3892 48.0739 38.634 49.6527 38.7178H49.73L50.2236 38.0277L50.7589 37.2345L51.0978 36.8475L51.642 36.2832C51.642 36.2832 51.642 36.2896 51.642 36.2928L51.6747 36.4638L51.8263 36.4251C52.7897 36.1735 53.4795 36.0349 54.0058 36.0252H54.0593C54.1902 36.0252 54.3061 36.0349 54.4191 36.051C54.663 36.0865 54.8681 36.1574 55.0525 36.2767L55.106 36.3283L55.5461 36.7733L55.5342 36.783C55.7929 37.2151 55.888 37.7117 55.891 38.218C55.891 39.0983 55.5907 39.9722 55.4212 40.3979V40.4043C55.2041 40.5559 54.8562 40.8009 54.5202 41.0331C54.3924 41.1234 54.2645 41.2105 54.1456 41.2911C54.095 41.3137 54.0504 41.3362 54.0088 41.3556C53.6728 41.3556 53.2595 41.2201 52.8521 40.6139C52.7956 40.4462 52.5459 39.6852 51.8947 39.5723C51.636 39.5369 51.4398 39.5175 51.2941 39.5175C51.1305 39.5272 50.9313 39.5046 50.8867 39.7852C50.9551 40.185 51.4249 40.4398 52.1474 41.1718C52.5994 41.6071 53.0216 42.0811 53.3576 42.4487C53.7204 42.8164 53.872 43.0711 54.1248 43.1227C54.2496 43.1227 54.3091 42.9518 54.3091 42.8937C54.3091 42.8196 54.2942 42.7551 54.2675 42.6648C54.1396 42.2456 54.0207 41.9876 53.9315 41.8328C53.9315 41.8328 53.9345 41.8328 53.9374 41.8296L54.3864 41.6523C54.4399 41.6394 54.4875 41.6232 54.5321 41.6039C54.6719 41.5523 54.7581 41.5007 54.764 41.4942L54.7373 41.4297C55.1149 41.3104 55.4479 41.2395 55.4479 41.2363L55.5223 41.2201L55.5996 41.0396C56.8692 41.7683 57.2528 42.7906 57.3361 43.4323C57.0803 43.6741 56.6343 44.0869 56.2686 44.419C56.0248 44.1191 55.7334 43.8611 55.4182 43.8483C55.2249 43.8418 55.0287 43.9901 54.9484 44.2384L54.9097 44.3384L54.9752 44.419C55.4569 45.0059 55.9237 45.5734 56.4173 45.7315L56.4678 45.7476L56.5184 45.7218C56.6462 45.6605 56.7116 45.4993 56.7057 45.3703C56.6997 45.151 56.6016 44.9253 56.4648 44.6996C56.9406 44.4287 57.5085 44.2255 57.5085 44.2223L57.5858 44.1933L57.6572 43.9192C59.6345 44.2965 59.7564 46.1087 59.7683 47.0181C59.7683 47.0407 59.7683 47.0729 59.7683 47.1148C59.7743 47.8855 58.9001 49.2012 58.466 49.7784C58.3619 49.9912 58.3262 50.3556 58.2578 50.7716C58.2013 51.1683 58.1151 51.6036 58.0616 51.6713C58.0229 51.7358 57.9159 51.8164 57.7613 51.8906C57.5442 51.997 57.2677 52.0905 56.9852 52.2195C56.9287 52.2453 56.8692 52.2743 56.8068 52.3033C56.4976 52.6032 55.3825 53.5997 54.773 54.193C54.6213 54.3413 54.4994 54.4671 54.431 54.5477C54.2943 54.7218 53.5777 55.1733 52.8967 55.5732C52.7719 55.6473 52.6529 55.7215 52.534 55.7924C52.195 55.9924 51.8798 56.1826 51.6628 56.3277C51.5438 56.4083 51.3981 56.5019 51.2405 56.6083C51.1692 56.6566 51.1008 56.7018 51.0294 56.7502C51.0086 56.7631 50.9878 56.776 50.967 56.7921C50.964 56.7921 50.961 56.7953 50.9581 56.7985C50.8689 56.8598 50.7737 56.9211 50.6786 56.9856C50.6786 56.9856 50.6726 56.9856 50.6697 56.992C50.0006 57.4467 49.2751 57.9497 48.9272 58.269C48.4426 58.7108 47.2472 59.1332 47.0837 59.1816C47.051 59.1945 47.0183 59.2074 46.9737 59.2235L46.9469 59.2364C46.6615 59.3589 46.1054 59.6169 45.7724 59.9426C45.371 60.3618 45.2788 61.0551 44.3809 62.0322C44.3809 62.0322 44.3749 62.0386 44.3719 62.0418C44.3422 62.0741 44.3244 62.0967 44.3065 62.1128C44.1222 62.303 43.9438 62.4869 43.7505 62.6836C43.1737 63.2737 42.4868 63.9799 41.3123 65.3471L41.2201 65.4568L41.1012 65.5954C41.0804 65.6212 41.0566 65.647 41.0358 65.6728L40.9793 65.7373C40.9793 65.7373 40.9585 65.7599 40.9466 65.776L40.8187 65.9243C40.7919 65.9566 40.7682 65.9856 40.7414 66.0146L40.6195 66.1598L40.6284 66.1662C40.6135 66.1855 40.5987 66.2017 40.5808 66.221C38.1634 69.1071 34.8213 73.6958 32.392 77.0688H11.593V77.1043ZM33.3108 77.1043C35.4101 74.1505 37.5479 71.216 39.8196 68.3783C40.2746 67.8076 40.7414 67.2497 41.2142 66.6951C42.5671 67.8592 44.0032 69.091 45.8646 70.6807L45.9508 70.7549C47.8598 72.3834 50.2177 74.3988 53.3755 77.1043H33.3108ZM72.7741 46.1378V77.1043H55.0882C50.8362 73.2508 47.0956 69.8649 47.0569 69.8359C46.8518 69.6779 46.6496 69.5199 46.4444 69.3619C44.9339 68.201 43.4294 67.0369 41.9278 65.8695C42.6711 65.0182 43.4353 64.183 44.2173 63.3575C44.4433 63.1157 44.6663 62.8738 44.8982 62.6352C44.9964 62.532 45.0915 62.4256 45.1896 62.3224C45.1748 62.3224 45.1599 62.3159 45.148 62.3127L45.6267 61.7L46.3136 60.4521L46.8518 59.8491L47.7795 59.4879L49.0253 58.7624L50.0482 58.198L51.746 57.1726V57.1823C51.8085 57.1436 51.8679 57.1049 51.9244 57.0662C52.5399 56.6599 53.1733 56.2826 53.8126 55.9053C54.3151 55.6054 54.9157 55.312 55.3379 54.8444C55.7542 54.3768 56.2597 53.9576 56.7384 53.519C56.9674 53.3094 57.1963 53.1031 57.4223 52.8902C57.6958 52.6355 58.0586 52.5291 58.46 52.3614C58.5135 52.3388 58.5611 52.313 58.6087 52.2872C59.2093 51.9389 59.2153 51.2714 59.2837 50.7684C59.3193 50.4975 59.3372 50.2363 59.4145 50.0203C59.4264 49.9719 59.5334 49.8526 59.6167 49.7397C59.7386 49.5656 59.8545 49.3882 59.9675 49.2109C60.3333 48.6208 60.7198 47.9371 60.7733 47.2019H60.7823V47.0278C60.7823 46.7343 60.7585 46.4409 60.7168 46.1507C60.6693 45.8379 60.5979 45.5283 60.4879 45.2284C60.1192 44.2352 59.2836 43.5935 58.2578 43.342C58.1151 42.094 57.2677 41.0783 56.2002 40.443C56.3756 39.9335 56.4678 39.3918 56.4678 38.8532C56.4678 38.7468 56.4619 38.6404 56.453 38.5372L56.4262 38.276L56.4173 38.2309H72.783V46.1539L72.7741 46.1378Z" fill="black"/>
<path d="M21.0447 32.7168L19.9177 28.644H12.4396L11.2443 32.7168H4.99414L13.8401 5.35864H18.4489L27.2918 32.7168H21.0417H21.0447ZM16.2991 15.7324L14.1136 23.0331H18.3478L16.2991 15.7324Z" fill="#EC1C24"/>
<path d="M40.5297 32.9457C37.696 32.9457 35.5433 31.8686 33.7682 29.8725C31.208 26.9897 31.3091 23.1491 31.3091 19.0376C31.3091 14.9262 31.208 11.0824 33.7682 8.20275C35.5433 6.20345 37.696 5.12964 40.5297 5.12964C45.1385 5.12964 48.8612 8.0125 49.7503 14.0426H43.6726C43.298 12.5045 42.5457 11.1211 40.5654 11.1211C39.4741 11.1211 38.6535 11.6209 38.2104 12.2723C37.6633 13.0785 37.2887 14.0394 37.2887 19.0344C37.2887 24.0294 37.6633 24.9904 38.2104 25.7966C38.6535 26.4512 39.4741 26.9478 40.5654 26.9478C42.5457 26.9478 43.298 25.5644 43.6726 24.0262H49.7503C48.8612 30.0596 45.1415 32.9392 40.5297 32.9392V32.9457Z" fill="white"/>
<path d="M66.8457 11.3533V32.7168H60.8692V11.3533H54.8926V5.35864H72.8193V11.3533H66.8428H66.8457Z" fill="#EC1C24"/>
</g>
<rect x="1.03516" y="0.75" width="75.9286" height="80.5" stroke="white" stroke-width="0.5"/>
<defs>
<clipPath id="clip0_598_29936">
<rect x="1.28516" y="1" width="75.4286" height="80" fill="white"/>
</clipPath>
</defs>
</svg>
