<svg width="40" height="40" viewBox="0 0 40 40" fill="none" xmlns="http://www.w3.org/2000/svg">
<rect x="0.5" y="0.5" width="39" height="39" rx="19.5" fill="black"/>
<rect x="0.5" y="0.5" width="39" height="39" rx="19.5" stroke="white"/>
<rect x="12" y="16" width="8" height="1.2" fill="white"/>
<rect x="8" y="20" width="7" height="1.2" fill="white"/>
<rect x="10" y="13" width="5" height="1.2" fill="white"/>
<path fill-rule="evenodd" clip-rule="evenodd" d="M22.1 11.0392C22.4313 10.4653 23.1652 10.2686 23.7392 10.6L32.3994 15.6C32.9734 15.9314 33.17 16.6653 32.8387 17.2392L25.3387 30.2296C25.0073 30.8036 24.2734 31.0002 23.6994 30.6688L15.0392 25.6688C14.4652 25.3375 14.2686 24.6036 14.6 24.0296L22.1 11.0392ZM23.1392 11.6392L15.6392 24.6296L24.2994 29.6296L31.7994 16.6392L23.1392 11.6392Z" fill="white"/>
<path fill-rule="evenodd" clip-rule="evenodd" d="M22.5706 10.5825C22.9368 10.3854 23.379 10.3921 23.7392 10.6L32.3994 15.6C32.7596 15.8079 32.9864 16.1876 32.9989 16.6033C33.0114 17.019 32.8077 17.4115 32.4606 17.6406L28.7286 20.1047C28.3493 20.3552 27.861 20.3698 27.4674 20.1426L22.2712 17.1426C21.8776 16.9153 21.6462 16.4851 21.6734 16.0314L21.9413 11.5673C21.9663 11.1522 22.2044 10.7795 22.5706 10.5825ZM23.1392 11.6392L22.8712 16.1033L28.0674 19.1033L31.7994 16.6392L23.1392 11.6392Z" fill="white"/>
</svg>
