<svg width="153" height="30" viewBox="0 0 153 30" fill="none" xmlns="http://www.w3.org/2000/svg">
<path d="M30.4053 0H0.322266V30H30.4053V0Z" fill="#ED2E7C"/>
<path d="M7.96693 4.17486C8.44339 4.69146 8.68429 5.29327 8.68429 5.97852V12.8931H12.0374C12.2105 12.8931 12.3479 12.8328 12.4549 12.7138C12.5156 12.6623 12.5495 12.5203 12.5495 12.2895V3.62808H14.9461V12.4937C14.9461 13.147 14.7998 13.6742 14.5035 14.0772C14.1306 14.5796 13.5274 14.8317 12.6976 14.8317H5.36156V12.8931H6.31626V7.74667C6.27701 7.75377 6.23418 7.75377 6.18778 7.75377H6.07179C5.4722 7.75377 4.96362 7.55139 4.54247 7.14841C4.11062 6.7472 3.89648 6.24836 3.89648 5.65187C3.89648 5.19031 4.04817 4.75182 4.34796 4.33286C4.52284 4.09497 4.71022 3.91567 4.91543 3.78608C5.12244 3.66004 5.34193 3.5766 5.57927 3.53755C5.88442 3.50737 6.10748 3.49316 6.25024 3.49316C6.99616 3.49316 7.57255 3.7204 7.97585 4.17664H7.96871L7.96693 4.17486ZM5.17597 5.65542C5.17597 5.77791 5.19738 5.88976 5.24914 5.99627C5.2991 6.10279 5.36513 6.19865 5.45257 6.27854C5.53465 6.3602 5.63459 6.42411 5.74344 6.47204C5.85408 6.51997 5.96472 6.54127 6.0825 6.54127C6.20027 6.54127 6.31091 6.51997 6.41798 6.47204C6.52505 6.42411 6.62141 6.3602 6.70529 6.27854C6.78916 6.19687 6.8534 6.10279 6.90337 5.99627C6.94798 5.88976 6.97475 5.77791 6.97475 5.65542C6.97475 5.52405 6.95333 5.40511 6.90515 5.29149C6.86232 5.17788 6.79808 5.07846 6.71778 4.99858C6.63569 4.91337 6.54111 4.84768 6.43404 4.7962C6.3234 4.74649 6.20741 4.72341 6.0825 4.72341C5.95758 4.72341 5.83802 4.74649 5.72916 4.7962C5.61674 4.84768 5.52216 4.91159 5.44008 4.99858C5.35799 5.08024 5.29375 5.17788 5.24557 5.29149C5.19738 5.40511 5.17597 5.52583 5.17597 5.65542Z" fill="white"/>
<path d="M20.3986 25.8441V26.9501H17.9824V15.4092H20.3986V19.6946C20.9875 18.9029 21.7977 18.3206 23.0522 18.3206C25.0365 18.3206 26.9281 19.8686 26.9281 22.6984V22.7285C26.9281 25.5583 25.0705 27.1063 23.0522 27.1063C21.7656 27.1063 20.9732 26.524 20.3986 25.8441ZM24.5155 22.7285V22.6984C24.5155 21.2924 23.5608 20.3568 22.433 20.3568C21.3052 20.3568 20.3665 21.2924 20.3665 22.6984V22.7285C20.3665 24.1345 21.3034 25.0701 22.433 25.0701C23.5626 25.0701 24.5155 24.1523 24.5155 22.7285Z" fill="white"/>
<path d="M15.6741 25.5483H5.32227V16.0205H7.41727V19.3544H13.5774V16.0205H15.6741V25.5483ZM13.5774 23.5902V21.3108H7.41727V23.5902H13.5774Z" fill="white"/>
<path d="M26.0288 5.74933C25.9592 5.94283 25.936 6.01029 25.87 6.28191C25.4274 8.09799 24.7047 9.56435 23.6715 10.7839C22.6168 12.0355 21.3481 12.9409 19.353 13.8534C18.8997 13.0083 18.707 12.7492 17.9129 11.9574C18.8872 11.6432 19.4993 11.3716 20.313 10.8514C22.0262 9.78981 23.195 8.22226 23.6108 6.39375H18.7355C17.7612 6.39552 17.4632 6.40972 17.0117 6.46476V4.44452C17.4989 4.52618 17.7933 4.53506 18.7695 4.53506L23.6447 4.53151C23.9499 4.53151 24.0766 4.53151 24.3121 4.52085C24.374 4.51375 24.4317 4.5102 24.4852 4.5102C24.3817 4.3167 24.3817 4.30782 24.098 3.86756L25.1294 3.54091C25.5256 4.09479 25.6184 4.27409 25.9699 5.03923L25.5845 5.17415L26.0288 5.74933ZM26.4892 3.09888C26.8764 3.6279 27.0584 3.9652 27.2958 4.58654L26.2768 4.98065C26.0609 4.43032 25.87 4.06994 25.481 3.45925L26.4892 3.09888Z" fill="white"/>
<path d="M41.6595 8.48169C42.2716 8.48169 42.8301 8.53495 43.3334 8.64324C43.8348 8.74975 44.2684 8.92728 44.6271 9.17226C44.9894 9.41725 45.2678 9.74212 45.4641 10.1469C45.6621 10.5516 45.7621 11.054 45.7621 11.6505C45.7621 12.2949 45.6157 12.8311 45.3231 13.2624C45.0304 13.6921 44.595 14.0436 44.0168 14.3169C44.8091 14.5442 45.3998 14.9401 45.7906 15.5081C46.1814 16.0744 46.3741 16.7579 46.3741 17.5568C46.3741 18.2012 46.2492 18.7604 45.9976 19.2308C45.746 19.7031 45.4052 20.0883 44.9805 20.3848C44.5557 20.683 44.0686 20.9031 43.5243 21.0469C42.9783 21.189 42.4179 21.2617 41.8415 21.2617H35.6172V8.48524H41.6613L41.6595 8.48169ZM41.299 13.653C41.8041 13.653 42.2181 13.5341 42.541 13.2944C42.864 13.0547 43.0282 12.6677 43.0282 12.1316C43.0282 11.8334 42.9729 11.5884 42.864 11.3967C42.757 11.2067 42.6142 11.0576 42.4322 10.9493C42.2502 10.841 42.045 10.7664 41.8112 10.7256C41.5792 10.683 41.3347 10.6635 41.0831 10.6635H38.4385V13.653H41.299ZM41.4632 19.0746C41.7398 19.0746 42.0021 19.048 42.252 18.9947C42.5054 18.9415 42.7266 18.8527 42.9194 18.7267C43.1085 18.6006 43.2638 18.4302 43.3762 18.2172C43.4904 18.0024 43.5493 17.729 43.5493 17.3935C43.5493 16.7384 43.3637 16.2697 42.9907 15.9875C42.6178 15.707 42.127 15.5667 41.515 15.5667H38.4403V19.0746H41.4632Z" fill="#ED2E7C"/>
<path d="M48.0653 14.6287C48.2919 14.0269 48.6149 13.5121 49.0378 13.0896C49.4554 12.6671 49.9604 12.3386 50.5457 12.1061C51.1364 11.8735 51.7949 11.7563 52.5265 11.7563C53.2582 11.7563 53.9202 11.8735 54.5162 12.1061C55.1087 12.3386 55.6155 12.6671 56.0331 13.0896C56.456 13.5138 56.779 14.0269 57.0074 14.6287C57.234 15.2305 57.3482 15.9016 57.3482 16.6418C57.3482 17.3821 57.234 18.0496 57.0074 18.6461C56.779 19.2426 56.456 19.7521 56.0331 20.1764C55.6155 20.5989 55.1087 20.9255 54.5162 21.151C53.922 21.3764 53.2582 21.4901 52.5265 21.4901C51.7949 21.4901 51.1364 21.3764 50.5457 21.151C49.9604 20.9255 49.4554 20.5989 49.0378 20.1764C48.6149 19.7521 48.2919 19.2426 48.0653 18.6461C47.8369 18.0496 47.7227 17.3803 47.7227 16.6418C47.7227 15.9033 47.8369 15.2305 48.0653 14.6287ZM50.3869 17.7247C50.4583 18.0762 50.5814 18.3922 50.7527 18.6727C50.9294 18.9532 51.1578 19.1769 51.4469 19.3438C51.736 19.5107 52.0929 19.5941 52.5265 19.5941C52.9602 19.5941 53.3224 19.5124 53.6151 19.3438C53.9077 19.1769 54.1415 18.9532 54.3182 18.6727C54.4913 18.3922 54.6126 18.0762 54.684 17.7247C54.7572 17.3732 54.7911 17.0111 54.7911 16.6418C54.7911 16.2726 54.7572 15.9069 54.684 15.5501C54.6126 15.1932 54.4895 14.8772 54.3182 14.6021C54.1415 14.3269 53.9077 14.1032 53.6151 13.931C53.3224 13.7571 52.9602 13.6701 52.5265 13.6701C52.0929 13.6701 51.736 13.7571 51.4469 13.931C51.1578 14.1032 50.9294 14.3269 50.7527 14.6021C50.5796 14.8772 50.4583 15.1932 50.3869 15.5501C50.3137 15.9087 50.2798 16.2726 50.2798 16.6418C50.2798 17.0111 50.3137 17.3732 50.3869 17.7247Z" fill="#ED2E7C"/>
<path d="M59.0555 14.6287C59.2821 14.0269 59.6051 13.5121 60.0281 13.0896C60.4456 12.6671 60.9507 12.3386 61.536 12.1061C62.1266 11.8735 62.7851 11.7563 63.5168 11.7563C64.2484 11.7563 64.9105 11.8735 65.5065 12.1061C66.0989 12.3386 66.6057 12.6671 67.0233 13.0896C67.4462 13.5138 67.7692 14.0269 67.9976 14.6287C68.2243 15.2305 68.3385 15.9016 68.3385 16.6418C68.3385 17.3821 68.2243 18.0496 67.9976 18.6461C67.7692 19.2426 67.4462 19.7521 67.0233 20.1764C66.6057 20.5989 66.0989 20.9255 65.5065 21.151C64.9122 21.3764 64.2484 21.4901 63.5168 21.4901C62.7851 21.4901 62.1266 21.3764 61.536 21.151C60.9489 20.9255 60.4456 20.5989 60.0281 20.1764C59.6051 19.7521 59.2821 19.2426 59.0555 18.6461C58.8271 18.0496 58.7129 17.3803 58.7129 16.6418C58.7129 15.9033 58.8271 15.2305 59.0555 14.6287ZM61.3771 17.7247C61.4485 18.0762 61.5717 18.3922 61.743 18.6727C61.9196 18.9532 62.1481 19.1769 62.4371 19.3438C62.7262 19.5107 63.0831 19.5941 63.5168 19.5941C63.9504 19.5941 64.3126 19.5124 64.6053 19.3438C64.898 19.1769 65.1317 18.9532 65.3084 18.6727C65.4815 18.3922 65.6028 18.0762 65.6742 17.7247C65.7474 17.3732 65.7813 17.0111 65.7813 16.6418C65.7813 16.2726 65.7474 15.9069 65.6742 15.5501C65.6028 15.1932 65.4797 14.8772 65.3084 14.6021C65.1317 14.3269 64.898 14.1032 64.6053 13.931C64.3126 13.7571 63.9504 13.6701 63.5168 13.6701C63.0831 13.6701 62.7262 13.7571 62.4371 13.931C62.1481 14.1032 61.9196 14.3269 61.743 14.6021C61.5699 14.8772 61.4485 15.1932 61.3771 15.5501C61.304 15.9087 61.2701 16.2726 61.2701 16.6418C61.2701 17.0111 61.304 17.3732 61.3771 17.7247Z" fill="#ED2E7C"/>
<path d="M72.417 12.0072V13.296H72.4723C72.7953 12.7599 73.2129 12.3694 73.7304 12.1226C74.2461 11.8776 74.7743 11.7551 75.3114 11.7551C75.9967 11.7551 76.557 11.8492 76.9942 12.0321C77.4314 12.2167 77.7758 12.4741 78.0292 12.8025C78.2808 13.1309 78.4575 13.5304 78.5592 14.0008C78.6609 14.473 78.7127 14.995 78.7127 15.5666V21.2581H76.1591V16.0335C76.1591 15.2701 76.0377 14.7003 75.7986 14.3239C75.5577 13.9476 75.133 13.7594 74.5227 13.7594C73.825 13.7594 73.3199 13.9653 73.0094 14.3772C72.6989 14.789 72.5419 15.4654 72.5419 16.4081V21.2581H69.9883V12.0072H72.4152H72.417Z" fill="#ED2E7C"/>
<path d="M83.1395 12.0072V13.2605H83.1734C83.5089 12.783 83.914 12.412 84.3887 12.1492C84.8634 11.8883 85.4059 11.7551 86.0162 11.7551C86.6265 11.7551 87.1404 11.8687 87.6258 12.0942C88.1129 12.3214 88.4805 12.7209 88.7339 13.2943C89.0105 12.8895 89.3853 12.5309 89.8582 12.2202C90.3311 11.9114 90.8932 11.7551 91.5392 11.7551C92.0299 11.7551 92.4867 11.8155 92.9061 11.9344C93.3255 12.0534 93.6859 12.2451 93.9857 12.5061C94.2855 12.7688 94.5175 13.1114 94.6852 13.5357C94.853 13.9582 94.9386 14.4695 94.9386 15.066V21.2581H92.3832V16.014C92.3832 15.7033 92.3707 15.4121 92.3493 15.137C92.3244 14.8636 92.2583 14.6239 92.1513 14.4216C92.0442 14.2192 91.8836 14.0576 91.673 13.9387C91.4642 13.8197 91.1787 13.7594 90.82 13.7594C90.4613 13.7594 90.1687 13.8286 89.9474 13.9653C89.7261 14.102 89.553 14.2813 89.4263 14.5014C89.2996 14.7216 89.2175 14.9737 89.1747 15.2524C89.1319 15.5329 89.1123 15.8169 89.1123 16.1027V21.2563H86.5586V16.0672C86.5586 15.7921 86.5515 15.5204 86.5408 15.2524C86.5283 14.9843 86.4766 14.7376 86.3855 14.5103C86.2945 14.2849 86.1464 14.102 85.9376 13.9653C85.7271 13.8286 85.4183 13.7594 85.0115 13.7594C84.8901 13.7594 84.7313 13.786 84.5332 13.8393C84.3369 13.8925 84.146 13.9955 83.9604 14.1446C83.773 14.2937 83.616 14.5085 83.4822 14.789C83.3501 15.0695 83.2841 15.437 83.2841 15.8897V21.2581H80.7305V12.0072H83.1413H83.1395Z" fill="#ED2E7C"/>
<path d="M99.6894 19.0384C100.073 19.4076 100.624 19.5923 101.344 19.5923C101.859 19.5923 102.302 19.4645 102.673 19.207C103.046 18.9514 103.274 18.6798 103.358 18.394H105.609C105.246 19.5035 104.695 20.297 103.954 20.7728C103.208 21.2504 102.311 21.4882 101.256 21.4882C100.523 21.4882 99.8643 21.3728 99.2754 21.1385C98.6865 20.906 98.1922 20.5758 97.7818 20.1461C97.3749 19.7165 97.0608 19.2035 96.8378 18.607C96.6165 18.0105 96.5059 17.3555 96.5059 16.6383C96.5059 15.921 96.6183 15.3015 96.8467 14.705C97.0751 14.1085 97.3981 13.5919 97.8192 13.157C98.2404 12.722 98.74 12.3776 99.3218 12.1273C99.9035 11.877 100.548 11.751 101.256 11.751C102.045 11.751 102.734 11.9036 103.323 12.2072C103.912 12.5126 104.393 12.9209 104.77 13.4321C105.146 13.9452 105.421 14.531 105.589 15.1861C105.757 15.8429 105.816 16.5282 105.767 17.2436H99.0595C99.097 18.0673 99.3057 18.6638 99.6894 19.0331V19.0384ZM102.577 14.1706C102.27 13.8369 101.806 13.6683 101.183 13.6683C100.773 13.6683 100.437 13.7375 100.166 13.8742C99.8964 14.0127 99.6805 14.1813 99.5199 14.3855C99.3557 14.5896 99.2433 14.8026 99.1772 15.0299C99.1112 15.2571 99.072 15.4595 99.0613 15.6388H103.216C103.098 14.9944 102.882 14.5062 102.579 14.1706H102.577Z" fill="#ED2E7C"/>
<path d="M110.013 19.0384C110.397 19.4076 110.949 19.5923 111.668 19.5923C112.185 19.5923 112.63 19.4645 112.999 19.207C113.37 18.9514 113.599 18.6798 113.684 18.394H115.931C115.57 19.5035 115.019 20.297 114.277 20.7728C113.532 21.2504 112.633 21.4882 111.578 21.4882C110.849 21.4882 110.187 21.3728 109.598 21.1385C109.012 20.906 108.514 20.5758 108.106 20.1461C107.697 19.7165 107.381 19.2035 107.162 18.607C106.937 18.0105 106.828 17.3555 106.828 16.6383C106.828 15.921 106.942 15.3015 107.171 14.705C107.399 14.1085 107.722 13.5919 108.14 13.157C108.559 12.722 109.062 12.3776 109.644 12.1273C110.226 11.877 110.868 11.751 111.577 11.751C112.367 11.751 113.058 11.9036 113.643 12.2072C114.234 12.5126 114.716 12.9209 115.092 13.4321C115.47 13.9452 115.743 14.531 115.911 15.1861C116.079 15.8429 116.14 16.5282 116.093 17.2436H109.382C109.419 18.0673 109.628 18.6638 110.012 19.0331L110.013 19.0384ZM112.901 14.1706C112.594 13.8369 112.13 13.6683 111.509 13.6683C111.098 13.6683 110.761 13.7375 110.492 13.8742C110.22 14.0127 110.005 14.1813 109.844 14.3855C109.682 14.5896 109.567 14.8026 109.501 15.0299C109.437 15.2571 109.398 15.4595 109.385 15.6388H113.54C113.422 14.9944 113.208 14.5062 112.901 14.1706Z" fill="#ED2E7C"/>
<path d="M125.7 8.48169V18.8971H131.96V21.26H122.875V8.48347H125.7V8.48169Z" fill="#ED2E7C"/>
<path d="M133.166 14.8506C133.204 14.2541 133.354 13.7588 133.616 13.3665C133.878 12.9724 134.216 12.6564 134.624 12.4185C135.029 12.1789 135.49 12.0102 135.998 11.909C136.507 11.8078 137.019 11.7563 137.537 11.7563C138.002 11.7563 138.477 11.7901 138.957 11.8558C139.437 11.9214 139.873 12.0493 140.27 12.241C140.667 12.4309 140.99 12.6972 141.243 13.0381C141.493 13.3772 141.623 13.8281 141.623 14.389V19.2035C141.623 19.6225 141.645 20.0219 141.693 20.4036C141.741 20.7853 141.827 21.0711 141.946 21.2628H139.353C139.307 21.119 139.268 20.9735 139.237 20.8243C139.207 20.6752 139.186 20.5225 139.175 20.3681C138.768 20.7853 138.29 21.0782 137.736 21.2451C137.185 21.4119 136.621 21.4954 136.043 21.4954C135.6 21.4954 135.188 21.4421 134.805 21.3338C134.419 21.2273 134.085 21.0587 133.798 20.8314C133.509 20.606 133.286 20.3184 133.122 19.9722C132.959 19.626 132.881 19.2142 132.881 18.7366C132.881 18.2112 132.972 17.7798 133.159 17.4389C133.345 17.0999 133.584 16.8265 133.878 16.6241C134.171 16.4217 134.508 16.269 134.885 16.1679C135.265 16.0667 135.643 15.9868 136.027 15.9264C136.411 15.8661 136.789 15.8199 137.16 15.7826C137.531 15.7471 137.863 15.6939 138.15 15.6211C138.438 15.5483 138.663 15.4453 138.832 15.3086C139.002 15.1719 139.078 14.9713 139.068 14.7086C139.068 14.4334 139.023 14.2168 138.932 14.0553C138.841 13.8938 138.723 13.7695 138.575 13.6807C138.425 13.5902 138.252 13.5316 138.054 13.5014C137.856 13.4712 137.642 13.457 137.413 13.457C136.912 13.457 136.514 13.5636 136.227 13.7801C135.938 13.9949 135.77 14.3518 135.722 14.8524H133.168L133.166 14.8506ZM139.068 16.7288C138.961 16.8247 138.823 16.8993 138.664 16.9525C138.5 17.0058 138.329 17.0519 138.142 17.0857C137.956 17.1229 137.76 17.1513 137.558 17.1762C137.353 17.1993 137.148 17.2295 136.946 17.265C136.755 17.3005 136.568 17.3484 136.378 17.4088C136.193 17.4673 136.032 17.549 135.893 17.6502C135.756 17.7514 135.643 17.8792 135.561 18.0354C135.476 18.1916 135.434 18.3869 135.434 18.6266C135.434 18.852 135.476 19.0438 135.561 19.1982C135.643 19.3544 135.757 19.4751 135.902 19.5657C136.045 19.6562 136.213 19.7184 136.407 19.7539C136.596 19.7894 136.794 19.8071 136.999 19.8071C137.505 19.8071 137.894 19.7237 138.17 19.5568C138.447 19.3899 138.648 19.1893 138.782 18.9585C138.911 18.726 138.993 18.4899 139.023 18.2502C139.053 18.0123 139.068 17.8206 139.068 17.6786V16.7306V16.7288Z" fill="#ED2E7C"/>
<path d="M146.153 8.48169V13.1346H146.191C146.501 12.6571 146.926 12.3091 147.458 12.0872C147.993 11.8671 148.546 11.7553 149.121 11.7553C149.588 11.7553 150.052 11.8511 150.506 12.0411C150.962 12.231 151.371 12.5239 151.739 12.918C152.105 13.3122 152.401 13.8163 152.629 14.4306C152.858 15.0448 152.972 15.7762 152.972 16.623C152.972 17.4698 152.858 18.2012 152.629 18.8154C152.401 19.4315 152.106 19.9338 151.739 20.328C151.373 20.7221 150.962 21.0132 150.506 21.2049C150.051 21.3949 149.588 21.4907 149.121 21.4907C148.437 21.4907 147.825 21.3842 147.286 21.1694C146.747 20.9546 146.339 20.5907 146.062 20.0776H146.028V21.2582H143.6V8.48169H146.153ZM150.291 15.5152C150.208 15.1566 150.076 14.8406 149.895 14.5673C149.717 14.2921 149.49 14.0755 149.221 13.914C148.951 13.7524 148.623 13.6725 148.241 13.6725C147.859 13.6725 147.547 13.7542 147.272 13.914C146.996 14.0755 146.767 14.2921 146.587 14.5673C146.408 14.8424 146.276 15.1584 146.192 15.5152C146.109 15.8738 146.066 16.2502 146.066 16.6425C146.066 17.0349 146.109 17.3935 146.192 17.7521C146.276 18.1107 146.408 18.4267 146.587 18.7C146.767 18.9752 146.996 19.1918 147.272 19.3533C147.549 19.5149 147.872 19.5948 148.241 19.5948C148.61 19.5948 148.951 19.5149 149.221 19.3533C149.49 19.1918 149.717 18.9752 149.895 18.7C150.076 18.4249 150.208 18.1089 150.291 17.7521C150.375 17.3935 150.416 17.0242 150.416 16.6425C150.416 16.2608 150.375 15.8721 150.291 15.5152Z" fill="#ED2E7C"/>
</svg>
