<svg width="40" height="40" viewBox="0 0 40 40" fill="none" xmlns="http://www.w3.org/2000/svg">
<rect x="0.5" y="0.5" width="39" height="39" rx="19.5" fill="black"/>
<rect x="0.5" y="0.5" width="39" height="39" rx="19.5" stroke="white"/>
<path fill-rule="evenodd" clip-rule="evenodd" d="M14 12.2C14 11.5373 14.5373 11 15.2 11H25.2C25.8627 11 26.4 11.5373 26.4 12.2V27.2C26.4 27.8627 25.8627 28.4 25.2 28.4H15.2C14.5373 28.4 14 27.8627 14 27.2V12.2ZM15.2 12.2V27.2H25.2V12.2H15.2Z" fill="white"/>
<path fill-rule="evenodd" clip-rule="evenodd" d="M14.1792 11.5691C14.3979 11.2153 14.7841 11 15.2 11H25.2C25.6159 11 26.0021 11.2153 26.2208 11.5691C26.4394 11.9229 26.4593 12.3647 26.2733 12.7367L24.2733 16.7367C24.07 17.1432 23.6545 17.4 23.2 17.4H17.2C16.7455 17.4 16.33 17.1432 16.1267 16.7367L14.1267 12.7367C13.9407 12.3647 13.9606 11.9229 14.1792 11.5691ZM15.2 12.2L17.2 16.2H23.2L25.2 12.2H15.2Z" fill="white"/>
</svg>
