<svg width="30" height="30" viewBox="0 0 30 30" fill="none" xmlns="http://www.w3.org/2000/svg">
<g clip-path="url(#clip0_2769_27539)">
<rect width="30" height="30" rx="15" fill="black"/>
<path d="M25.2978 9.21924H17.0889V32.519H25.2978V9.21924Z" fill="black"/>
<path d="M25.299 32.9988H17.09C16.8252 32.9988 16.6104 32.784 16.6104 32.5192V9.21943C16.6104 8.95464 16.8252 8.73975 17.09 8.73975H25.299C25.5638 8.73975 25.7787 8.95464 25.7787 9.21943V32.5192C25.7787 32.784 25.5638 32.9988 25.299 32.9988ZM17.5697 32.0395H24.8193V9.69911H17.5697V32.0395Z" fill="#A6A6A6"/>
<path d="M19.3986 12.8113C19.1338 12.8113 18.9189 12.5964 18.9189 12.3316V11.5725C18.9189 11.3077 19.1338 11.0928 19.3986 11.0928C19.6634 11.0928 19.8783 11.3077 19.8783 11.5725V12.3316C19.8783 12.5964 19.6634 12.8113 19.3986 12.8113Z" fill="#A6A6A6"/>
<path d="M21.1984 12.8113C20.9336 12.8113 20.7188 12.5964 20.7188 12.3316V11.5725C20.7188 11.3077 20.9336 11.0928 21.1984 11.0928C21.4632 11.0928 21.6781 11.3077 21.6781 11.5725V12.3316C21.6781 12.5964 21.4632 12.8113 21.1984 12.8113Z" fill="#A6A6A6"/>
<path d="M23.0041 12.8113C22.7393 12.8113 22.5244 12.5964 22.5244 12.3316V11.5725C22.5244 11.3077 22.7393 11.0928 23.0041 11.0928C23.2689 11.0928 23.4838 11.3077 23.4838 11.5725V12.3316C23.4838 12.5964 23.2689 12.8113 23.0041 12.8113Z" fill="#A6A6A6"/>
<path d="M19.3986 15.679C19.1338 15.679 18.9189 15.4641 18.9189 15.1993V14.4401C18.9189 14.1753 19.1338 13.9604 19.3986 13.9604C19.6634 13.9604 19.8783 14.1753 19.8783 14.4401V15.1993C19.8783 15.4641 19.6634 15.679 19.3986 15.679Z" fill="#A6A6A6"/>
<path d="M21.1984 15.679C20.9336 15.679 20.7188 15.4641 20.7188 15.1993V14.4401C20.7188 14.1753 20.9336 13.9604 21.1984 13.9604C21.4632 13.9604 21.6781 14.1753 21.6781 14.4401V15.1993C21.6781 15.4641 21.4632 15.679 21.1984 15.679Z" fill="#A6A6A6"/>
<path d="M23.0041 15.679C22.7393 15.679 22.5244 15.4641 22.5244 15.1993V14.4401C22.5244 14.1753 22.7393 13.9604 23.0041 13.9604C23.2689 13.9604 23.4838 14.1753 23.4838 14.4401V15.1993C23.4838 15.4641 23.2689 15.679 23.0041 15.679Z" fill="#A6A6A6"/>
<path d="M19.3986 18.5472C19.1338 18.5472 18.9189 18.3323 18.9189 18.0675V17.3083C18.9189 17.0435 19.1338 16.8286 19.3986 16.8286C19.6634 16.8286 19.8783 17.0435 19.8783 17.3083V18.0675C19.8783 18.3323 19.6634 18.5472 19.3986 18.5472Z" fill="#A6A6A6"/>
<path d="M21.1984 18.5472C20.9336 18.5472 20.7188 18.3323 20.7188 18.0675V17.3083C20.7188 17.0435 20.9336 16.8286 21.1984 16.8286C21.4632 16.8286 21.6781 17.0435 21.6781 17.3083V18.0675C21.6781 18.3323 21.4632 18.5472 21.1984 18.5472Z" fill="#A6A6A6"/>
<path d="M23.0041 18.5472C22.7393 18.5472 22.5244 18.3323 22.5244 18.0675V17.3083C22.5244 17.0435 22.7393 16.8286 23.0041 16.8286C23.2689 16.8286 23.4838 17.0435 23.4838 17.3083V18.0675C23.4838 18.3323 23.2689 18.5472 23.0041 18.5472Z" fill="#A6A6A6"/>
<path d="M19.3986 21.4148C19.1338 21.4148 18.9189 21.1999 18.9189 20.9351V20.176C18.9189 19.9112 19.1338 19.6963 19.3986 19.6963C19.6634 19.6963 19.8783 19.9112 19.8783 20.176V20.9351C19.8783 21.1999 19.6634 21.4148 19.3986 21.4148Z" fill="#A6A6A6"/>
<path d="M21.1984 21.4148C20.9336 21.4148 20.7188 21.1999 20.7188 20.9351V20.176C20.7188 19.9112 20.9336 19.6963 21.1984 19.6963C21.4632 19.6963 21.6781 19.9112 21.6781 20.176V20.9351C21.6781 21.1999 21.4632 21.4148 21.1984 21.4148Z" fill="#A6A6A6"/>
<path d="M23.0041 21.4148C22.7393 21.4148 22.5244 21.1999 22.5244 20.9351V20.176C22.5244 19.9112 22.7393 19.6963 23.0041 19.6963C23.2689 19.6963 23.4838 19.9112 23.4838 20.176V20.9351C23.4838 21.1999 23.2689 21.4148 23.0041 21.4148Z" fill="#A6A6A6"/>
<path d="M19.3986 24.2825C19.1338 24.2825 18.9189 24.0676 18.9189 23.8028V23.0436C18.9189 22.7789 19.1338 22.564 19.3986 22.564C19.6634 22.564 19.8783 22.7789 19.8783 23.0436V23.8028C19.8783 24.0676 19.6634 24.2825 19.3986 24.2825Z" fill="#A6A6A6"/>
<path d="M21.1984 24.2825C20.9336 24.2825 20.7188 24.0676 20.7188 23.8028V23.0436C20.7188 22.7789 20.9336 22.564 21.1984 22.564C21.4632 22.564 21.6781 22.7789 21.6781 23.0436V23.8028C21.6781 24.0676 21.4632 24.2825 21.1984 24.2825Z" fill="#A6A6A6"/>
<path d="M23.0041 24.2825C22.7393 24.2825 22.5244 24.0676 22.5244 23.8028V23.0436C22.5244 22.7789 22.7393 22.564 23.0041 22.564C23.2689 22.564 23.4838 22.7789 23.4838 23.0436V23.8028C23.4838 24.0676 23.2689 24.2825 23.0041 24.2825Z" fill="#A6A6A6"/>
<path d="M19.3986 27.1512C19.1338 27.1512 18.9189 26.9363 18.9189 26.6715V25.9123C18.9189 25.6475 19.1338 25.4326 19.3986 25.4326C19.6634 25.4326 19.8783 25.6475 19.8783 25.9123V26.6715C19.8783 26.9363 19.6634 27.1512 19.3986 27.1512Z" fill="#A6A6A6"/>
<path d="M21.1984 27.1512C20.9336 27.1512 20.7188 26.9363 20.7188 26.6715V25.9123C20.7188 25.6475 20.9336 25.4326 21.1984 25.4326C21.4632 25.4326 21.6781 25.6475 21.6781 25.9123V26.6715C21.6781 26.9363 21.4632 27.1512 21.1984 27.1512Z" fill="#A6A6A6"/>
<path d="M23.0041 27.1512C22.7393 27.1512 22.5244 26.9363 22.5244 26.6715V25.9123C22.5244 25.6475 22.7393 25.4326 23.0041 25.4326C23.2689 25.4326 23.4838 25.6475 23.4838 25.9123V26.6715C23.4838 26.9363 23.2689 27.1512 23.0041 27.1512Z" fill="#A6A6A6"/>
<path d="M19.3986 30.0188C19.1338 30.0188 18.9189 29.8039 18.9189 29.5391V28.78C18.9189 28.5152 19.1338 28.3003 19.3986 28.3003C19.6634 28.3003 19.8783 28.5152 19.8783 28.78V29.5391C19.8783 29.8039 19.6634 30.0188 19.3986 30.0188Z" fill="#A6A6A6"/>
<path d="M21.1984 30.0188C20.9336 30.0188 20.7188 29.8039 20.7188 29.5391V28.78C20.7188 28.5152 20.9336 28.3003 21.1984 28.3003C21.4632 28.3003 21.6781 28.5152 21.6781 28.78V29.5391C21.6781 29.8039 21.4632 30.0188 21.1984 30.0188Z" fill="#A6A6A6"/>
<path d="M23.0041 30.0188C22.7393 30.0188 22.5244 29.8039 22.5244 29.5391V28.78C22.5244 28.5152 22.7393 28.3003 23.0041 28.3003C23.2689 28.3003 23.4838 28.5152 23.4838 28.78V29.5391C23.4838 29.8039 23.2689 30.0188 23.0041 30.0188Z" fill="#A6A6A6"/>
<path d="M17.0791 11.5723H8.87012V32.5196H17.0791V11.5723Z" fill="black"/>
<path d="M17.0802 32.9995H8.87128C8.6065 32.9995 8.3916 32.7846 8.3916 32.5198V11.5725C8.3916 11.3077 8.6065 11.0928 8.87128 11.0928H17.0802C17.345 11.0928 17.5599 11.3077 17.5599 11.5725V32.5198C17.5599 32.7846 17.345 32.9995 17.0802 32.9995ZM9.35097 32.0402H16.6006V12.0521H9.35097V32.0402Z" fill="#A6A6A6"/>
<path d="M15.3245 9.21924H10.6191V11.5716H15.3245V9.21924Z" fill="black"/>
<path d="M15.3257 12.0515H10.6203C10.3555 12.0515 10.1406 11.8366 10.1406 11.5718V9.21943C10.1406 8.95464 10.3555 8.73975 10.6203 8.73975H15.3257C15.5904 8.73975 15.8053 8.95464 15.8053 9.21943V11.5718C15.8053 11.8366 15.5904 12.0515 15.3257 12.0515ZM11.1 11.0921H14.846V9.69911H11.1V11.0921Z" fill="#A6A6A6"/>
<path d="M15.0067 14.2899H10.9396C10.6749 14.2899 10.46 14.075 10.46 13.8102C10.46 13.5455 10.6749 13.3306 10.9396 13.3306H15.0067C15.2715 13.3306 15.4864 13.5455 15.4864 13.8102C15.4864 14.075 15.2715 14.2899 15.0067 14.2899Z" fill="#A6A6A6"/>
<path d="M15.0067 16.9071H10.9396C10.6749 16.9071 10.46 16.6922 10.46 16.4274C10.46 16.1627 10.6749 15.9478 10.9396 15.9478H15.0067C15.2715 15.9478 15.4864 16.1627 15.4864 16.4274C15.4864 16.6922 15.2715 16.9071 15.0067 16.9071Z" fill="#A6A6A6"/>
<path d="M15.0067 19.5258H10.9396C10.6749 19.5258 10.46 19.3109 10.46 19.0461C10.46 18.7813 10.6749 18.5664 10.9396 18.5664H15.0067C15.2715 18.5664 15.4864 18.7813 15.4864 19.0461C15.4864 19.3109 15.2715 19.5258 15.0067 19.5258Z" fill="#A6A6A6"/>
<path d="M13.0273 15.563H4.81836V32.5201H13.0273V15.563Z" fill="black"/>
<path d="M13.0285 32.9994H4.81953C4.55474 32.9994 4.33984 32.7845 4.33984 32.5198V15.5627C4.33984 15.2979 4.55474 15.083 4.81953 15.083H13.0285C13.2933 15.083 13.5082 15.2979 13.5082 15.5627V32.5198C13.5082 32.7845 13.2933 32.9994 13.0285 32.9994ZM5.29921 32.0401H12.5488V16.0424H5.29921V32.0401Z" fill="#A6A6A6"/>
<path d="M21.1933 20.7832H12.9844V32.5207H21.1933V20.7832Z" fill="black"/>
<path d="M21.1945 33.0006H12.9855C12.7208 33.0006 12.5059 32.7857 12.5059 32.5209V20.7834C12.5059 20.5186 12.7208 20.3037 12.9855 20.3037H21.1945C21.4593 20.3037 21.6742 20.5186 21.6742 20.7834V32.5209C21.6742 32.7857 21.4593 33.0006 21.1945 33.0006ZM13.4652 32.0412H20.7148V21.2631H13.4652V32.0412Z" fill="#A6A6A6"/>
<path d="M12.9875 9.70029C12.7227 9.70029 12.5078 9.48539 12.5078 9.22061V7.47968C12.5078 7.2149 12.7227 7 12.9875 7C13.2523 7 13.4672 7.2149 13.4672 7.47968V9.22061C13.4672 9.48539 13.2523 9.70029 12.9875 9.70029Z" fill="#A6A6A6"/>
<path d="M15.2404 31.5736C14.9756 31.5736 14.7607 31.3587 14.7607 31.0939V22.6848C14.7607 22.42 14.9756 22.2051 15.2404 22.2051C15.5052 22.2051 15.7201 22.42 15.7201 22.6848V31.0939C15.7201 31.3587 15.5052 31.5736 15.2404 31.5736Z" fill="#A6A6A6"/>
<path d="M17.093 31.5736C16.8282 31.5736 16.6133 31.3587 16.6133 31.0939V22.6848C16.6133 22.42 16.8282 22.2051 17.093 22.2051C17.3577 22.2051 17.5726 22.42 17.5726 22.6848V31.0939C17.5726 31.3587 17.3577 31.5736 17.093 31.5736Z" fill="#A6A6A6"/>
<path d="M18.9445 31.5736C18.6797 31.5736 18.4648 31.3587 18.4648 31.0939V22.6848C18.4648 22.42 18.6797 22.2051 18.9445 22.2051C19.2093 22.2051 19.4242 22.42 19.4242 22.6848V31.0939C19.4242 31.3587 19.2093 31.5736 18.9445 31.5736Z" fill="#A6A6A6"/>
<path d="M10.0648 32.9996H7.7873C7.52251 32.9996 7.30762 32.7847 7.30762 32.5199V30.2424C7.30762 29.9776 7.52251 29.7627 7.7873 29.7627H10.0648C10.3296 29.7627 10.5445 29.9776 10.5445 30.2424V32.5199C10.5445 32.7847 10.3296 32.9996 10.0648 32.9996ZM8.26698 32.0402H9.58515V30.7221H8.26698V32.0402Z" fill="#A6A6A6"/>
<path d="M7.12519 19.8606C6.86041 19.8606 6.64551 19.6457 6.64551 19.3809V18.6218C6.64551 18.357 6.86041 18.1421 7.12519 18.1421C7.38997 18.1421 7.60487 18.357 7.60487 18.6218V19.3809C7.60487 19.6457 7.38997 19.8606 7.12519 19.8606Z" fill="#A6A6A6"/>
<path d="M8.92499 19.8606C8.66021 19.8606 8.44531 19.6457 8.44531 19.3809V18.6218C8.44531 18.357 8.66021 18.1421 8.92499 18.1421C9.18978 18.1421 9.40468 18.357 9.40468 18.6218V19.3809C9.40468 19.6457 9.18978 19.8606 8.92499 19.8606Z" fill="#A6A6A6"/>
<path d="M10.7307 19.8606C10.4659 19.8606 10.251 19.6457 10.251 19.3809V18.6218C10.251 18.357 10.4659 18.1421 10.7307 18.1421C10.9954 18.1421 11.2103 18.357 11.2103 18.6218V19.3809C11.2103 19.6457 10.9954 19.8606 10.7307 19.8606Z" fill="#A6A6A6"/>
<path d="M7.12519 22.6746C6.86041 22.6746 6.64551 22.4597 6.64551 22.1949V21.4357C6.64551 21.171 6.86041 20.9561 7.12519 20.9561C7.38997 20.9561 7.60487 21.171 7.60487 21.4357V22.1949C7.60487 22.4597 7.38997 22.6746 7.12519 22.6746Z" fill="#A6A6A6"/>
<path d="M8.92499 22.6746C8.66021 22.6746 8.44531 22.4597 8.44531 22.1949V21.4357C8.44531 21.171 8.66021 20.9561 8.92499 20.9561C9.18978 20.9561 9.40468 21.171 9.40468 21.4357V22.1949C9.40468 22.4597 9.18978 22.6746 8.92499 22.6746Z" fill="#A6A6A6"/>
<path d="M10.7307 22.6746C10.4659 22.6746 10.251 22.4597 10.251 22.1949V21.4357C10.251 21.171 10.4659 20.9561 10.7307 20.9561C10.9954 20.9561 11.2103 21.171 11.2103 21.4357V22.1949C11.2103 22.4597 10.9954 22.6746 10.7307 22.6746Z" fill="#A6A6A6"/>
<path d="M7.12519 25.4895C6.86041 25.4895 6.64551 25.2746 6.64551 25.0098V24.2507C6.64551 23.9859 6.86041 23.771 7.12519 23.771C7.38997 23.771 7.60487 23.9859 7.60487 24.2507V25.0098C7.60487 25.2746 7.38997 25.4895 7.12519 25.4895Z" fill="#A6A6A6"/>
<path d="M8.92499 25.4895C8.66021 25.4895 8.44531 25.2746 8.44531 25.0098V24.2507C8.44531 23.9859 8.66021 23.771 8.92499 23.771C9.18978 23.771 9.40468 23.9859 9.40468 24.2507V25.0098C9.40468 25.2746 9.18978 25.4895 8.92499 25.4895Z" fill="#A6A6A6"/>
<path d="M10.7307 25.4895C10.4659 25.4895 10.251 25.2746 10.251 25.0098V24.2507C10.251 23.9859 10.4659 23.771 10.7307 23.771C10.9954 23.771 11.2103 23.9859 11.2103 24.2507V25.0098C11.2103 25.2746 10.9954 25.4895 10.7307 25.4895Z" fill="#A6A6A6"/>
<path d="M7.12519 28.304C6.86041 28.304 6.64551 28.0891 6.64551 27.8243V27.0651C6.64551 26.8003 6.86041 26.5854 7.12519 26.5854C7.38997 26.5854 7.60487 26.8003 7.60487 27.0651V27.8243C7.60487 28.0891 7.38997 28.304 7.12519 28.304Z" fill="#A6A6A6"/>
<path d="M8.92499 28.304C8.66021 28.304 8.44531 28.0891 8.44531 27.8243V27.0651C8.44531 26.8003 8.66021 26.5854 8.92499 26.5854C9.18978 26.5854 9.40468 26.8003 9.40468 27.0651V27.8243C9.40468 28.0891 9.18978 28.304 8.92499 28.304Z" fill="#A6A6A6"/>
<path d="M10.7307 28.304C10.4659 28.304 10.251 28.0891 10.251 27.8243V27.0651C10.251 26.8003 10.4659 26.5854 10.7307 26.5854C10.9954 26.5854 11.2103 26.8003 11.2103 27.0651V27.8243C11.2103 28.0891 10.9954 28.304 10.7307 28.304Z" fill="#A6A6A6"/>
</g>
<rect x="0.5" y="0.5" width="29" height="29" rx="14.5" stroke="black"/>
<defs>
<clipPath id="clip0_2769_27539">
<rect width="30" height="30" rx="15" fill="white"/>
</clipPath>
</defs>
</svg>
