<svg width="40" height="40" viewBox="0 0 40 40" fill="none" xmlns="http://www.w3.org/2000/svg">
<rect x="0.5" y="0.5" width="39" height="39" rx="19.5" fill="black"/>
<rect x="0.5" y="0.5" width="39" height="39" rx="19.5" stroke="white"/>
<circle cx="20" cy="16.5" r="7.9" stroke="white" stroke-width="1.2"/>
<path d="M19.8118 11.9808V11H20.8809V11.9976C21.0269 12.0032 21.1742 12.013 21.3229 12.0271C21.4716 12.0383 21.6148 12.0579 21.7523 12.086C21.8926 12.1112 22.0245 12.1435 22.1479 12.1828C22.2742 12.2221 22.3865 12.2698 22.4847 12.3259C22.6362 12.4157 22.7807 12.5223 22.9182 12.6458C23.0585 12.7693 23.182 12.9096 23.2886 13.0667C23.3953 13.2239 23.4795 13.3979 23.5412 13.5887C23.6057 13.7767 23.638 13.983 23.638 14.2075C23.638 14.3983 23.6156 14.5779 23.5707 14.7462C23.5258 14.9118 23.4626 15.0661 23.3812 15.2093C23.2999 15.3496 23.203 15.4773 23.0908 15.5923C22.9814 15.7074 22.8593 15.8084 22.7246 15.8954C22.9126 15.9852 23.0852 16.0974 23.2423 16.2321C23.3995 16.364 23.5342 16.5141 23.6464 16.6825C23.7587 16.8481 23.8457 17.0277 23.9074 17.2213C23.9691 17.4149 24 17.617 24 17.8274C24 18.0407 23.9719 18.2526 23.9158 18.463C23.8597 18.6707 23.7755 18.8699 23.6633 19.0607C23.5538 19.2516 23.4163 19.4283 23.2508 19.5911C23.088 19.7539 22.8986 19.8956 22.6825 20.0162C22.4692 20.1341 22.2307 20.2267 21.9669 20.294C21.7031 20.3614 21.4155 20.3951 21.104 20.3951H20.8809V21.5484H19.8118V20.3951H17V11.9808H19.8118ZM22.1732 17.7937C22.1732 17.6226 22.1367 17.4752 22.0637 17.3518C21.9908 17.2255 21.894 17.1203 21.7733 17.0361C21.6526 16.9519 21.5137 16.8888 21.3566 16.8467C21.2022 16.8018 21.0437 16.7723 20.8809 16.7583V18.9302H20.9483C21.1475 18.9302 21.3229 18.9022 21.4744 18.8461C21.6288 18.7871 21.7565 18.7072 21.8575 18.6061C21.9613 18.5051 22.0399 18.3858 22.0932 18.2483C22.1465 18.108 22.1732 17.9565 22.1732 17.7937ZM19.8118 18.9302V16.7583H18.8268V18.9302H19.8118ZM19.8118 15.4113V13.4456H18.8268V15.4113H19.8118ZM21.828 14.4137C21.828 14.2538 21.8028 14.1191 21.7523 14.0096C21.7046 13.8974 21.6386 13.8062 21.5544 13.736C21.4702 13.6631 21.3706 13.6069 21.2556 13.5676C21.1405 13.5284 21.0156 13.5003 20.8809 13.4835V15.3776C21.2177 15.3243 21.459 15.2135 21.6049 15.0451C21.7537 14.8739 21.828 14.6635 21.828 14.4137Z" fill="white"/>
<rect x="19.5" y="24" width="1.3" height="8" fill="white"/>
</svg>
