<svg width="68" height="24" viewBox="0 0 68 24" fill="none" xmlns="http://www.w3.org/2000/svg">
<path d="M7.48288 17.0574C7.50383 17.0938 7.51066 17.1005 7.51114 17.1076C7.55793 17.5909 7.3365 17.8326 6.84684 17.8326C4.72037 17.8326 2.59341 17.8326 0.466947 17.8326C0.224878 17.8326 0.103844 17.7116 0.103844 17.4696C0.103844 17.3436 0.103844 17.218 0.103844 17.063C0.438679 17.0242 0.765228 16.9901 1.09129 16.9474C1.24384 16.9275 1.39493 16.8962 1.54505 16.8635C2.07727 16.7474 2.4048 16.4309 2.47449 15.903C2.52908 15.4898 2.57392 15.0723 2.57489 14.6567C2.5822 10.8325 2.5822 7.00776 2.57489 3.18354C2.57392 2.76795 2.52859 2.35046 2.47498 1.93723C2.40577 1.40554 2.06557 1.08709 1.53822 0.982838C1.10981 0.898014 0.673112 0.849678 0.237875 0.806081C0.0755757 0.789495 0.0370722 0.729312 0.0326857 0.586674C0.014165 0.00474841 0.0107533 0.00474839 0.608289 0.00474839C2.75913 0.00474839 4.91045 0.00806555 7.06129 9.5794e-06C7.29864 -0.000938182 7.36444 0.0682484 7.35713 0.293342C7.34202 0.771962 7.35372 0.770066 6.86926 0.836883C6.58024 0.876689 6.28975 0.91223 6.00561 0.973835C5.49775 1.0833 5.16194 1.38279 5.0903 1.89269C5.02645 2.3443 4.9782 2.80112 4.97381 3.25652C4.95919 4.71512 4.96845 6.1742 4.96894 7.63281C4.96894 7.67877 4.97868 7.72427 4.98599 7.78824H14.5734C14.5792 7.71053 14.5895 7.63518 14.5895 7.55983C14.5865 5.93537 14.5899 4.31138 14.5724 2.68691C14.569 2.35946 14.5222 2.02253 14.4291 1.70835C14.2707 1.17381 13.8077 0.997529 13.294 0.921708C12.9255 0.867212 12.5551 0.824562 12.1701 0.774805V0.0184909H19.5116V0.773857C19.129 0.822193 18.7454 0.864368 18.3638 0.919812C17.9748 0.976204 17.5703 1.05013 17.3442 1.39417C17.1975 1.61736 17.0995 1.89411 17.0649 2.15759C17.0045 2.61678 16.9918 3.0845 16.9908 3.54843C16.9855 7.12054 16.9816 10.6927 16.9937 14.2643C16.9957 14.8524 17.0542 15.4428 17.1307 16.0271C17.1872 16.4598 17.4953 16.7327 17.9246 16.8242C18.3745 16.9204 18.8356 16.9654 19.2918 17.0332C19.3473 17.0412 19.4029 17.0498 19.4926 17.063C19.4926 17.282 19.4989 17.4995 19.4867 17.716C19.4843 17.7559 19.4131 17.8085 19.3629 17.8255C19.3044 17.8449 19.2347 17.8326 19.1699 17.8326C16.8729 17.8326 14.5758 17.8326 12.2783 17.8326C12.0528 17.8326 11.9397 17.7265 11.9391 17.5142C11.9376 17.0417 11.9391 17.0559 12.4245 17.0052C12.8344 16.9626 13.2452 16.9043 13.6459 16.8119C14.0806 16.7114 14.3813 16.438 14.4501 15.994C14.5164 15.5675 14.5807 15.1353 14.5841 14.7055C14.5987 12.8919 14.5865 11.0784 14.5953 9.26485C14.5963 9.04213 14.5417 8.96963 14.3009 8.9701C11.2894 8.97768 8.27829 8.97721 5.26673 8.97057C5.03766 8.9701 4.96163 9.0246 4.96309 9.25822C4.97284 11.0007 4.95626 12.7436 4.97576 14.4861C4.98161 15.0178 5.05325 15.5518 5.13855 16.0783C5.20239 16.4721 5.49629 16.7214 5.88376 16.8081C6.33995 16.9104 6.80882 16.9593 7.27184 17.0308C7.343 17.0417 7.41513 17.0488 7.48288 17.0574Z" fill="white"/>
<path d="M52.5204 3.26452C52.6525 3.26452 52.7485 3.26452 52.8445 3.26452C55.0353 3.26452 57.2262 3.24841 59.417 3.27021C60.941 3.28537 62.4397 3.4735 63.8497 4.09239C65.3514 4.75156 66.37 5.84812 66.9549 7.33326C67.5758 8.91034 67.5802 10.5215 67.182 12.1417C66.72 14.0235 65.5912 15.4361 63.899 16.4341C62.5767 17.2142 61.1243 17.6487 59.5953 17.7065C57.2461 17.7956 54.8925 17.7785 52.5409 17.8108C52.3728 17.8131 52.3182 17.7586 52.3172 17.5937C52.3128 17.0402 52.3075 17.0483 52.8743 16.9876C53.1633 16.9568 53.4504 16.9014 53.7345 16.8407C54.1239 16.7569 54.3291 16.4901 54.3725 16.1252C54.4188 15.7352 54.4393 15.3404 54.4398 14.9476C54.4451 12.0076 54.4446 9.06719 54.4398 6.12724C54.4393 5.74197 54.4217 5.35481 54.3764 4.97286C54.3228 4.51888 54.101 4.30943 53.6327 4.22792C53.3378 4.17674 53.0405 4.13409 52.7422 4.11135C52.5814 4.09903 52.5063 4.06017 52.5175 3.89052C52.5307 3.69575 52.5204 3.49909 52.5204 3.265V3.26452ZM58.6327 4.20328C58.2687 4.22508 57.9026 4.22697 57.5415 4.27199C56.7417 4.37151 56.612 4.52173 56.612 5.30079C56.6106 8.53265 56.6086 11.7645 56.6169 14.9964C56.6174 15.2684 56.6603 15.5499 56.7397 15.8105C56.8601 16.2053 57.1199 16.5161 57.543 16.6313C58.9632 17.0175 60.3469 16.8417 61.6682 16.2664C63.1703 15.6124 64.1105 14.4358 64.594 12.9412C65.1944 11.0864 65.2208 9.22263 64.4341 7.39629C63.9521 6.27698 63.1299 5.45764 62.0255 4.9032C60.9615 4.36914 59.8166 4.20518 58.6332 4.20328H58.6327Z" fill="white"/>
<path d="M48.5445 14.2264C48.5445 14.078 48.5445 13.9946 48.5445 13.9112C48.5416 11.7745 48.5533 9.63778 48.5275 7.50153C48.5182 6.73195 48.4295 5.96189 48.354 5.1942C48.3023 4.6682 47.9665 4.35449 47.4489 4.24265C47.0941 4.16636 46.73 4.12513 46.3679 4.08627C46.2158 4.07016 46.1622 4.02467 46.1588 3.8716C46.1451 3.26409 46.1398 3.26456 46.7578 3.26456C48.2999 3.26456 49.8419 3.26456 51.384 3.26456C51.481 3.26456 51.578 3.26456 51.695 3.26456V4.03983C51.3514 4.10096 51.0068 4.14693 50.67 4.22512C50.1817 4.33885 49.896 4.6573 49.8551 5.13876C49.7835 5.978 49.6991 6.81962 49.6933 7.66075C49.6699 11.0191 49.6753 14.378 49.6699 17.7369C49.6699 17.8141 49.6699 17.8918 49.6699 17.9999C49.3926 17.9999 49.1357 18.0056 48.8799 17.9951C48.8277 17.9928 48.7678 17.9369 48.7297 17.8909C47.9679 16.982 47.2101 16.0693 46.4483 15.1604C45.492 14.0198 44.5309 12.8824 43.5751 11.7413C42.5014 10.4595 41.4316 9.1748 40.3594 7.89153C40.0084 7.47168 39.6561 7.05276 39.2671 6.58836C39.2574 6.71062 39.2471 6.77554 39.2471 6.84047C39.2501 9.03217 39.2398 11.2243 39.2647 13.416C39.2735 14.2098 39.3475 15.005 39.428 15.7959C39.4923 16.4309 39.7969 16.7379 40.4373 16.8678C40.8 16.9412 41.1709 16.9782 41.5666 17.0355C41.5666 17.2398 41.5778 17.4516 41.5588 17.6611C41.5539 17.7141 41.4565 17.7928 41.3936 17.8009C41.2337 17.8212 41.07 17.8084 40.9077 17.8084C39.3656 17.8084 37.8235 17.8032 36.2814 17.8141C36.0309 17.816 35.9451 17.7454 35.9743 17.5066C35.9934 17.3521 35.9778 17.1943 35.9778 17.0374C36.3145 16.9844 36.6328 16.9403 36.9486 16.8834C37.554 16.774 37.8937 16.3982 37.9497 15.821C38.0233 15.0614 38.0799 14.2975 38.0881 13.5345C38.112 11.2566 38.1106 8.97814 38.1135 6.69972C38.1135 6.35379 38.1188 6.00217 38.0618 5.6624C37.9487 4.98617 37.5218 4.52319 36.8726 4.28862C36.5509 4.17252 36.1942 4.14361 35.8505 4.09338C35.6936 4.07063 35.6337 4.02087 35.6332 3.85786C35.6307 3.26409 35.6239 3.26409 36.2448 3.26409C37.1377 3.26409 38.0306 3.26788 38.9235 3.26077C39.0951 3.25935 39.2067 3.31337 39.3149 3.44084C40.645 5.00702 41.9789 6.56988 43.3154 8.13084C44.4909 9.50415 45.6709 10.8741 46.847 12.247C47.3339 12.8152 47.8149 13.3876 48.2999 13.9572C48.3647 14.033 48.4344 14.1046 48.5455 14.2254L48.5445 14.2264Z" fill="white"/>
<path d="M28.3058 2.90259C28.5417 3.53759 28.7702 4.15032 28.9974 4.76352C29.4989 6.1174 30.0004 7.47127 30.5005 8.8261C30.8991 9.90655 31.2886 10.9908 31.6946 12.0689C32.1508 13.2801 32.6182 14.4876 33.0895 15.6936C33.1635 15.8831 33.2737 16.0613 33.3824 16.2352C33.6514 16.665 34.072 16.8607 34.5672 16.9314C34.7753 16.9612 34.9839 16.9887 35.2296 17.0219C35.2296 17.2432 35.2418 17.4692 35.2193 17.6924C35.215 17.7374 35.0799 17.8028 35.0044 17.8038C34.4039 17.8128 33.8035 17.809 33.2025 17.809C32.0499 17.809 30.8977 17.8047 29.745 17.8128C29.5291 17.8142 29.4472 17.7621 29.4545 17.5356C29.4706 17.0204 29.4589 17.0233 29.9741 16.938C30.1656 16.9062 30.3572 16.8669 30.5419 16.8105C30.8826 16.7067 30.9825 16.5414 30.8845 16.1978C30.7719 15.804 30.6389 15.4149 30.4985 15.0292C30.2285 14.2885 29.9409 13.554 29.6743 12.8119C29.6168 12.6517 29.5442 12.5916 29.3668 12.5925C27.9383 12.5991 26.5097 12.5977 25.0812 12.5939C24.9413 12.5939 24.8653 12.6257 24.8175 12.7659C24.4773 13.7583 24.1147 14.7434 23.7857 15.7391C23.525 16.5276 23.6756 16.7508 24.5144 16.9115C24.721 16.9508 24.9311 16.9806 25.1412 16.9925C25.2903 17.001 25.3361 17.0584 25.3332 17.1953C25.3181 17.9317 25.437 17.8028 24.7347 17.8066C23.3144 17.8137 21.8937 17.8042 20.4735 17.8132C20.2381 17.8147 20.1659 17.7455 20.1723 17.518C20.1859 17.019 20.1723 16.9968 20.6655 16.9451C21.555 16.8513 22.075 16.3357 22.3904 15.5765C22.9323 14.271 23.466 12.9626 24.0016 11.6552C24.4237 10.625 24.8448 9.59426 25.263 8.56262C25.8381 7.14382 26.4098 5.72313 26.984 4.30385C27.1229 3.96029 27.2618 3.61625 27.409 3.27601C27.4338 3.21867 27.4928 3.15564 27.5508 3.13574C27.793 3.05139 28.0411 2.98267 28.3062 2.90259H28.3058ZM29.1845 11.4092C28.5602 9.65113 27.95 7.93331 27.3398 6.21549C27.3198 6.21312 27.3003 6.21122 27.2803 6.20885C26.6267 7.93236 25.9731 9.65539 25.3078 11.4092H29.185H29.1845Z" fill="white"/>
<path d="M33.841 23.316C33.841 22.9578 33.841 22.646 33.841 22.3337C33.841 22.0418 33.8444 21.7503 33.841 21.4584C33.839 21.2888 33.9565 21.3006 34.074 21.2987C34.1914 21.2968 34.2801 21.312 34.2796 21.4603C34.2767 22.2707 34.2782 23.0815 34.2782 23.8866C33.8927 23.9852 33.82 23.9638 33.6046 23.6819C33.1752 23.1208 32.7478 22.5578 32.3189 21.9963C32.3067 21.9802 32.2833 21.9716 32.2336 21.9389V23.9127C32.1434 23.9207 32.0781 23.9193 32.0172 23.934C31.8388 23.9757 31.7915 23.9027 31.793 23.7373C31.7993 23.0279 31.792 22.3185 31.7998 21.6086C31.8008 21.5129 31.8515 21.339 31.89 21.3362C32.0542 21.3243 32.2399 21.2461 32.3793 21.43C32.835 22.0318 33.3 22.6275 33.762 23.2251C33.7762 23.2435 33.7927 23.2606 33.8415 23.3156L33.841 23.316Z" fill="white"/>
<path d="M9.9543 23.9921C9.06969 23.9912 8.55501 23.6182 8.42 22.9287C8.27184 22.1733 8.78506 21.4502 9.56877 21.3403C10.1605 21.2573 10.7268 21.3166 11.1401 21.8056C11.4935 22.224 11.5105 22.7074 11.3224 23.1879C11.1362 23.6628 10.7346 23.8992 10.2282 23.9736C10.1166 23.9902 10.0021 23.9893 9.95478 23.9926L9.9543 23.9921ZM10.933 22.6685C10.9413 22.071 10.5343 21.6407 9.9543 21.6336C9.30997 21.626 8.90349 22.0179 8.88936 22.6591C8.87717 23.2296 9.29974 23.676 9.85926 23.6836C10.5094 23.6926 10.9237 23.3002 10.9325 22.6685H10.933Z" fill="white"/>
<path d="M44.4456 22.7345C44.9227 23.0032 44.8423 23.5188 45.0787 23.8846C44.659 24.0021 44.5616 23.9538 44.4539 23.5856C44.4319 23.5102 44.4149 23.4335 44.3934 23.3577C44.2838 22.9686 43.8563 22.7331 43.4591 22.8587C43.406 22.8757 43.3558 22.9866 43.3528 23.0558C43.3407 23.3368 43.348 23.6183 43.348 23.914H42.8879C42.8879 23.7747 42.8879 23.6439 42.8879 23.5131C42.8879 22.8752 42.8962 22.2374 42.883 21.6C42.8786 21.3911 42.9488 21.3176 43.1598 21.3299C43.5697 21.3541 43.9835 21.3385 44.389 21.3911C44.6829 21.4294 44.91 21.6043 44.9485 21.9289C44.988 22.2635 44.8681 22.5132 44.5435 22.6573C44.5157 22.6696 44.4943 22.6947 44.4451 22.7336L44.4456 22.7345ZM43.3485 21.6398C43.3485 21.773 43.3485 21.882 43.3485 21.9905C43.3485 22.6132 43.3889 22.6454 44.0327 22.5397C44.0405 22.5383 44.0488 22.5378 44.0566 22.5364C44.2945 22.4871 44.5016 22.2625 44.4924 22.0644C44.4826 21.8455 44.3154 21.6706 44.0454 21.6441C43.8232 21.6223 43.597 21.6398 43.348 21.6398H43.3485Z" fill="white"/>
<path d="M52.2807 23.9291C52.1384 23.9291 52.0346 23.9519 51.9488 23.923C51.8586 23.8926 51.7504 23.8291 51.7129 23.7519C51.6237 23.569 51.5823 23.3647 51.5023 23.1761C51.4015 22.9382 50.8507 22.743 50.6192 22.8634C50.5748 22.8866 50.549 22.978 50.5471 23.0392C50.5398 23.3216 50.5437 23.6045 50.5437 23.9083H50.1099C50.1045 23.8599 50.0923 23.8002 50.0923 23.7405C50.0909 23.0159 50.0962 22.2914 50.0879 21.5668C50.086 21.3957 50.1342 21.3223 50.319 21.3313C50.7293 21.3517 51.1436 21.3341 51.5501 21.3815C51.842 21.4157 52.0853 21.5806 52.1428 21.8943C52.2071 22.2464 52.0701 22.5084 51.7285 22.6615C51.7027 22.6729 51.6866 22.7046 51.6583 22.7345C52.0892 23.0141 52.058 23.5022 52.2802 23.9286L52.2807 23.9291ZM50.5534 22.5568C50.6811 22.5568 50.7839 22.5591 50.8868 22.5563C51.0076 22.5525 51.1305 22.5553 51.2489 22.5345C51.4863 22.4918 51.6983 22.262 51.6934 22.0715C51.688 21.8677 51.5082 21.6749 51.2494 21.6474C51.0228 21.6232 50.7912 21.6422 50.5534 21.6422V22.5572V22.5568Z" fill="white"/>
<path d="M18.7715 23.9022C19.0405 23.2743 19.2998 22.6673 19.5596 22.0612C19.6405 21.8731 19.7404 21.6906 19.7999 21.4963C19.8662 21.2788 20.0319 21.3281 20.1869 21.3158C20.3487 21.303 20.4564 21.3409 20.5241 21.5039C20.7639 22.0858 21.0174 22.6625 21.265 23.2416C21.3571 23.4572 21.4482 23.6728 21.5418 23.8932C21.1027 23.9828 21.031 23.9804 20.9111 23.5989C20.7898 23.2122 20.5675 23.1483 20.1878 23.1416C19.7526 23.1336 19.4782 23.2061 19.3607 23.6629C19.2803 23.9757 19.2262 23.9686 18.7715 23.9027V23.9022ZM20.1445 21.7541C19.99 22.1408 19.854 22.482 19.7146 22.8322H20.5889C20.4383 22.4663 20.299 22.1285 20.1445 21.7541Z" fill="white"/>
<path d="M30.1209 22.4691V22.77H28.8483C28.8483 23.0387 28.8386 23.2799 28.8576 23.5187C28.861 23.5604 28.9819 23.6235 29.0496 23.6254C29.4454 23.6358 29.8411 23.6306 30.252 23.6306V23.914H28.3999C28.3936 23.8476 28.3819 23.7803 28.3814 23.713C28.3799 22.9956 28.3853 22.2781 28.377 21.5607C28.3751 21.382 28.4175 21.3081 28.6197 21.3138C29.1295 21.327 29.6398 21.318 30.1701 21.318V21.6336C29.807 21.6336 29.4434 21.6412 29.0803 21.6303C28.9034 21.6251 28.8356 21.6735 28.841 21.8545C28.862 22.5895 28.7357 22.4544 29.4663 22.4686C29.6759 22.4729 29.886 22.4691 30.1209 22.4691Z" fill="white"/>
<path d="M46.5059 21.3498C47.0166 21.3219 47.5162 21.2479 48.007 21.4001C48.392 21.519 48.547 21.7157 48.5534 22.0592C48.5607 22.4488 48.4018 22.6914 48.0328 22.8212C47.8666 22.8795 47.6917 22.9255 47.5167 22.9468C47.3417 22.9681 47.1619 22.9515 46.9523 22.9515V23.9135H46.5059V21.3494V21.3498ZM46.9543 22.6525C47.2399 22.617 47.5113 22.6089 47.7682 22.5445C47.9909 22.4886 48.1006 22.2971 48.0869 22.0749C48.0743 21.8706 47.9539 21.7114 47.7394 21.6778C47.484 21.6375 47.2223 21.6337 46.9543 21.6133V22.653V22.6525Z" fill="white"/>
<path d="M39.8932 23.6302H41.2818V23.914H39.4414V21.3337H41.2096V21.6328H39.8781C39.8781 21.8858 39.8674 22.1128 39.8864 22.3374C39.8903 22.3858 40.0009 22.4592 40.0657 22.4625C40.3489 22.4767 40.634 22.4782 40.9177 22.4663C41.1453 22.4568 41.216 22.5383 41.1273 22.772H39.8927V23.6302H39.8932Z" fill="white"/>
<path d="M59.8595 23.6335H61.2486V23.9159C61.174 23.9206 61.1111 23.9287 61.0478 23.9287C60.5058 23.9296 59.9643 23.9292 59.4062 23.9292V21.3328H61.1764V21.6308H59.8464C59.8464 21.8829 59.8361 22.117 59.8551 22.3488C59.859 22.3933 59.9765 22.4597 60.0447 22.463C60.3201 22.4762 60.5964 22.4772 60.8718 22.4663C61.0926 22.4578 61.1779 22.5303 61.0868 22.7729H59.8585V23.6335H59.8595Z" fill="white"/>
<path d="M55.8126 23.5784C56.1328 23.6159 56.4179 23.6656 56.7045 23.6756C56.8322 23.6799 56.9774 23.6277 57.089 23.5604C57.3176 23.423 57.3274 23.1392 57.1051 22.9913C56.9618 22.8961 56.7839 22.8525 56.626 22.7757C56.4047 22.6681 56.1747 22.571 55.9729 22.435C55.6727 22.2336 55.7151 21.7133 56.1172 21.482C56.4842 21.2711 57.1831 21.255 57.5969 21.4531C57.5764 21.6474 57.5306 21.7687 57.2674 21.6948C57.0715 21.6398 56.8517 21.637 56.6455 21.6516C56.451 21.6654 56.2761 21.7692 56.259 21.9805C56.2424 22.1848 56.4111 22.2814 56.5802 22.3492C56.7966 22.4359 57.0218 22.5018 57.2372 22.5904C57.6573 22.7629 57.8396 23.1183 57.6978 23.4766C57.5715 23.795 57.2898 23.932 56.9774 23.9599C56.6596 23.9884 56.3311 23.9699 56.0143 23.9253C55.6805 23.8784 55.681 23.8476 55.8126 23.578V23.5784Z" fill="white"/>
<path d="M6.91133 21.4365C6.86502 21.5483 6.83042 21.6322 6.79533 21.7165C6.55797 21.6876 6.33767 21.653 6.11591 21.6374C6.02233 21.6308 5.90731 21.6374 5.83566 21.6857C5.726 21.7587 5.58027 21.8677 5.57101 21.971C5.56175 22.0762 5.67385 22.2378 5.77864 22.2966C5.98627 22.4122 6.22947 22.4653 6.45172 22.5591C6.73245 22.6771 6.99272 22.8192 7.0127 23.1699C7.03756 23.612 6.77729 23.9115 6.24507 23.9637C5.92827 23.9949 5.59928 23.9656 5.28199 23.922C4.95934 23.8779 4.95203 23.8286 5.11189 23.5784C5.41554 23.6149 5.70114 23.6699 5.98773 23.6746C6.12907 23.677 6.28942 23.6111 6.41029 23.532C6.59745 23.4097 6.59696 23.1344 6.41127 23.0078C6.26846 22.9107 6.09788 22.8519 5.93655 22.7828C5.76694 22.7103 5.58417 22.6619 5.4248 22.5733C5.19378 22.4449 5.05487 22.2539 5.07729 21.9734C5.09825 21.7137 5.25275 21.5564 5.47597 21.4549C5.94143 21.2441 6.41078 21.282 6.91181 21.4365H6.91133Z" fill="white"/>
<path d="M15.2735 21.4634C15.2311 21.5516 15.195 21.6269 15.1711 21.6767C14.7954 21.6767 14.4362 21.6326 14.0935 21.6866C13.5209 21.7771 13.1865 22.2088 13.2299 22.7097C13.2786 23.2774 13.6778 23.6575 14.2812 23.6769C14.5692 23.6864 14.8587 23.6466 15.1726 23.6272C15.1975 23.685 15.2326 23.7679 15.2847 23.8897C14.5171 24.0271 13.7884 24.1233 13.1519 23.6224C12.5441 23.1443 12.6124 22.0979 13.2557 21.6658C13.8133 21.2914 14.7023 21.1933 15.2735 21.4629V21.4634Z" fill="white"/>
<path d="M36.6374 23.9144V21.6356C36.3532 21.6356 36.0959 21.6337 35.8386 21.6365C35.7157 21.6379 35.6134 21.6374 35.6173 21.4697C35.6207 21.3076 35.7192 21.2986 35.8434 21.2986C36.5087 21.3 37.174 21.3076 37.8393 21.2948C38.0922 21.2901 38.1307 21.3953 38.0684 21.6232H37.1004V23.914H36.6374V23.9144Z" fill="white"/>
<path d="M23.0078 21.3323C23.0926 21.3271 23.1638 21.3257 23.234 21.3177C23.4021 21.2977 23.4606 21.3636 23.4582 21.5299C23.4499 22.1436 23.464 22.7582 23.4499 23.3719C23.445 23.5809 23.5064 23.6454 23.7223 23.6354C24.0922 23.6183 24.4636 23.6307 24.8492 23.6307C24.855 23.7307 24.8589 23.8065 24.8648 23.9065H23.0078V21.3328V21.3323Z" fill="white"/>
<path d="M17.2419 23.9163H16.8032C16.7979 23.839 16.7886 23.7646 16.7886 23.6897C16.7876 22.9813 16.792 22.2733 16.7852 21.5649C16.7837 21.3947 16.8115 21.3071 17.0211 21.3104C17.2151 21.3132 17.2463 21.3867 17.2448 21.5502C17.238 22.3288 17.2419 23.1078 17.2419 23.9158V23.9163Z" fill="white"/>
<path d="M53.7598 21.3247H54.1765V23.9168H53.7598V21.3247Z" fill="white"/>
</svg>
