<svg width="101" height="20" viewBox="0 0 101 20" fill="none" xmlns="http://www.w3.org/2000/svg">
<path fill-rule="evenodd" clip-rule="evenodd" d="M69.1045 0.231934C63.7405 0.231934 59.3945 4.58347 59.3945 9.94994V17.8597C59.3945 18.9824 60.3019 19.8905 61.4237 19.8905C62.5456 19.8905 63.4529 18.9824 63.4529 17.8597V17.8527C65.0432 18.9953 66.9953 19.6689 69.1045 19.6689C74.4665 19.6689 78.8125 15.3174 78.8125 9.95093C78.8125 4.58446 74.4665 0.232924 69.1045 0.232924V0.231934ZM63.4529 9.94994C63.4529 13.0729 65.9842 15.6033 69.1045 15.6033C72.2249 15.6033 74.7532 13.0719 74.7532 9.94994C74.7532 6.82799 72.2239 4.29363 69.1045 4.29363C65.9851 4.29363 63.4529 6.827 63.4529 9.94994Z" fill="white"/>
<path fill-rule="evenodd" clip-rule="evenodd" d="M91.2607 0.231934C85.8987 0.231934 81.5527 4.58347 81.5527 9.94994V17.8597C81.5527 18.9824 82.4601 19.8905 83.5819 19.8905C84.7038 19.8905 85.6111 18.9824 85.6111 17.8597V17.8527C87.2014 18.9953 89.1535 19.6689 91.2598 19.6689C96.6238 19.6689 100.97 15.3174 100.97 9.95093C100.97 4.58446 96.6238 0.232924 91.2598 0.232924L91.2607 0.231934ZM85.6121 9.94994C85.6121 13.0729 88.1414 15.6033 91.2607 15.6033C94.3801 15.6033 96.9124 13.0719 96.9124 9.94994C96.9124 6.82799 94.3811 4.29363 91.2607 4.29363C88.1404 4.29363 85.6121 6.827 85.6121 9.94994Z" fill="white"/>
<path fill-rule="evenodd" clip-rule="evenodd" d="M56.6621 9.82738C56.6621 4.46091 52.3141 0.109375 46.9521 0.109375C41.5901 0.109375 37.2422 4.46091 37.2422 9.82738C37.2422 15.1938 41.5901 19.5454 46.9521 19.5454C49.0584 19.5454 51.0104 18.8717 52.6008 17.7292V17.7361C52.6008 18.8589 53.5101 19.767 54.6329 19.767C55.7557 19.767 56.6621 18.8589 56.6621 17.7361V9.82639V9.82738ZM41.3025 9.82738C41.3025 12.9503 43.8318 15.4807 46.9512 15.4807C50.0705 15.4807 52.5998 12.9493 52.5998 9.82738C52.5998 6.70543 50.0705 4.17405 46.9512 4.17405C43.8318 4.17405 41.3025 6.70543 41.3025 9.82738Z" fill="white"/>
<path d="M34.3455 2.14023C34.3455 1.01846 33.4371 0.109375 32.3163 0.109375C31.1955 0.109375 30.2871 1.01846 30.2871 2.14023V17.7371C30.2871 18.8589 31.1955 19.768 32.3163 19.768C33.4371 19.768 34.3455 18.8589 34.3455 17.7371V2.14023Z" fill="white"/>
<path d="M34.2397 1.53927C32.3113 2.848 30.8811 4.83829 30.2871 7.15898V2.19808C30.2871 1.07533 31.1964 0.167236 32.3192 0.167236C32.8787 0.167236 33.3857 0.393767 33.7554 0.761753C33.9728 0.979379 34.1389 1.24251 34.2407 1.53927H34.2397Z" fill="#F6072F"/>
<path fill-rule="evenodd" clip-rule="evenodd" d="M20.3925 9.88866C20.3925 8.21294 19.9676 6.63317 19.2223 5.25619C19.1472 5.11869 19.0681 4.98316 18.988 4.85061C18.7439 4.44998 18.4741 4.06815 18.1775 3.70807C18.0787 3.58739 17.975 3.46868 17.8712 3.35591C17.7674 3.24018 17.6587 3.12642 17.55 3.01761C15.7936 1.25681 13.366 0.170654 10.6845 0.170654C8.00304 0.170654 5.57654 1.2578 3.81918 3.01761C3.76383 3.073 3.71049 3.1284 3.65514 3.18379C3.54938 3.29755 3.44561 3.41032 3.34183 3.52903C3.24002 3.64773 3.14118 3.76545 3.04531 3.8891C2.85455 4.13344 2.67365 4.38865 2.50464 4.6498C2.42062 4.78236 2.33857 4.9159 2.26048 5.05043C2.18339 5.18596 2.10827 5.32345 2.03612 5.46293C1.35808 6.79144 0.974609 8.29307 0.974609 9.88768V17.7974C0.974609 18.9202 1.88193 19.8282 3.00376 19.8282C4.12558 19.8282 5.03295 18.9202 5.03295 17.7974V17.7905C5.13179 17.8627 5.23357 17.9309 5.33439 17.9982C5.42829 18.0605 5.52217 18.1219 5.61904 18.1792C5.63584 18.1911 5.65264 18.201 5.67241 18.2109C5.76927 18.2712 5.86517 18.3266 5.96401 18.382C5.99564 18.3988 6.02432 18.4157 6.05594 18.4325C6.13304 18.474 6.21012 18.5146 6.28919 18.5561C6.39989 18.6115 6.50863 18.6669 6.62229 18.7184C6.84666 18.8202 7.07596 18.9162 7.31021 19.0033C7.42585 19.0468 7.54446 19.0873 7.66208 19.1269C7.74609 19.1556 7.83306 19.1823 7.92004 19.207C8.04556 19.2456 8.17109 19.2792 8.29662 19.3109C8.34703 19.3257 8.39543 19.3376 8.44387 19.3475C8.67021 19.4029 8.90248 19.4494 9.13376 19.485C9.25929 19.5048 9.38682 19.5236 9.51532 19.5384C9.6191 19.5503 9.72287 19.5622 9.82863 19.5701C9.86223 19.575 9.89581 19.577 9.92843 19.579H9.93538C10.0441 19.5889 10.1499 19.5938 10.2586 19.5988H10.3238C10.4424 19.6037 10.563 19.6057 10.6836 19.6057C10.8042 19.6057 10.9228 19.6037 11.0434 19.5988H11.1086C11.2173 19.5938 11.326 19.5889 11.4318 19.579C11.4634 19.577 11.4921 19.574 11.5208 19.572C11.6315 19.5622 11.7402 19.5523 11.8509 19.5384C11.9764 19.5236 12.1039 19.5048 12.2294 19.485C12.3352 19.4682 12.4419 19.4484 12.5457 19.4296C12.5773 19.4227 12.608 19.4177 12.6396 19.4098C12.7414 19.3881 12.8402 19.3663 12.941 19.3426C13.0933 19.306 13.2425 19.2674 13.3928 19.2219C13.4966 19.1932 13.6003 19.1615 13.7011 19.1279C13.8197 19.0893 13.9373 19.0478 14.053 19.0042C14.2872 18.9172 14.5165 18.8202 14.7409 18.7193C14.9653 18.6155 15.1847 18.5017 15.3992 18.384C15.5049 18.3237 15.6117 18.2633 15.7155 18.2C15.925 18.0694 16.1306 17.9339 16.3283 17.7915V17.7984C16.3283 18.9212 17.2376 19.8292 18.3604 19.8292C19.4832 19.8292 20.3896 18.9212 20.3896 17.7984V9.88866H20.3925ZM6.69145 13.8861C7.71246 14.9099 9.12587 15.543 10.6856 15.543C13.8059 15.543 16.3342 13.0116 16.3342 9.88965C16.3342 8.32967 15.7016 6.91411 14.6786 5.89225C13.6606 4.86842 12.2462 4.23334 10.6845 4.23334C7.56419 4.23334 5.03295 6.76671 5.03295 9.88965C5.03295 11.4526 5.6675 12.8672 6.69048 13.8871L6.69145 13.8861Z" fill="white"/>
<path d="M4.9233 1.53927C2.99495 2.848 1.56473 4.83829 0.970703 7.15898V2.19808C0.970703 1.07533 1.88003 0.167236 3.00284 0.167236C3.56227 0.167236 4.06929 0.393767 4.43895 0.761753C4.6564 0.979379 4.82246 1.24251 4.92427 1.53927H4.9233Z" fill="#F6072F"/>
<path d="M7.97581 9.95648C8.52734 9.95648 8.97506 9.50837 8.97506 8.95639C8.97506 8.40441 8.52734 7.9563 7.97581 7.9563C7.42429 7.9563 6.97656 8.40441 6.97656 8.95639C6.97656 9.50837 7.42429 9.95648 7.97581 9.95648Z" fill="white"/>
<path d="M13.052 9.95648C13.6035 9.95648 14.0512 9.50837 14.0512 8.95639C14.0512 8.40441 13.6035 7.9563 13.052 7.9563C12.5005 7.9563 12.0527 8.40441 12.0527 8.95639C12.0527 9.50837 12.5005 9.95648 13.052 9.95648Z" fill="white"/>
</svg>
