<svg width="30" height="30" viewBox="0 0 30 30" fill="none" xmlns="http://www.w3.org/2000/svg">
<g clip-path="url(#clip0_564_7706)">
<rect width="30" height="30" rx="15" fill="black"/>
<path d="M6.875 29.375H23.125V25.3125C23.1232 23.8046 22.5235 22.359 21.4572 21.2928C20.391 20.2265 18.9454 19.6268 17.4375 19.625H12.5625C11.0546 19.6268 9.60901 20.2265 8.54278 21.2928C7.47655 22.359 6.87676 23.8046 6.875 25.3125V29.375Z" fill="#A6A6A6"/>
<path d="M9.3125 12.3125C9.3125 13.4374 9.64607 14.537 10.271 15.4723C10.896 16.4076 11.7842 17.1366 12.8235 17.5671C13.8627 17.9975 15.0063 18.1102 16.1096 17.8907C17.2128 17.6713 18.2263 17.1296 19.0217 16.3342C19.8171 15.5388 20.3588 14.5253 20.5782 13.4221C20.7977 12.3188 20.685 11.1752 20.2546 10.136C19.8241 9.09673 19.0951 8.20847 18.1598 7.58352C17.2245 6.95857 16.1249 6.625 15 6.625C13.4916 6.625 12.0449 7.22422 10.9783 8.29083C9.91172 9.35744 9.3125 10.8041 9.3125 12.3125Z" fill="#A6A6A6"/>
</g>
<rect x="0.5" y="0.5" width="29" height="29" rx="14.5" stroke="black"/>
<defs>
<clipPath id="clip0_564_7706">
<rect width="30" height="30" rx="15" fill="white"/>
</clipPath>
</defs>
</svg>
