<svg width="88" height="26" viewBox="0 0 88 26" fill="none" xmlns="http://www.w3.org/2000/svg">
<path d="M38.8301 11.4811C38.8301 6.13905 40.4958 3.14753 44.8471 3.14753C46.0783 3.12931 47.2942 3.42159 48.3825 3.9974L47.9358 6.9792C47.0054 6.58515 46.0079 6.37409 44.9977 6.35759C43.5407 6.35759 42.7103 6.88207 42.7103 10.1116V12.7194C42.7103 16.2257 43.6039 16.8959 44.9977 16.8959C46.0127 16.8472 47.0015 16.5576 47.8823 16.0509L48.6059 18.887C47.4377 19.5751 46.1058 19.9358 44.75 19.9311C40.4715 19.9117 38.8301 16.7308 38.8301 11.4811Z" fill="white"/>
<path d="M69.8473 0.431885L70.5611 3.268V13.6606C70.0339 13.9107 69.4543 14.0306 68.8711 14.0103C67.827 14.0103 67.3754 13.413 67.3754 11.9463V0.431885H62.9609L63.67 3.268V11.0722C63.67 15.5498 65.6854 16.8998 67.9241 16.8998C68.6125 16.9178 69.2975 16.799 69.9395 16.5502L70.9108 14.933L71.6781 16.6036H74.2666V0.431885H69.8473Z" fill="white"/>
<path d="M19.3805 3.42456L20.0943 6.26068V16.6533C19.5671 16.9034 18.9875 17.0233 18.4043 17.003C17.3602 17.003 16.9086 16.4056 16.9086 14.939V3.42456H12.4941L13.208 6.26068V14.0697C13.208 18.5424 15.2234 19.8974 17.4622 19.8974C18.1499 19.9133 18.8343 19.7962 19.4776 19.5526L20.4489 17.9354L21.2162 19.6011H23.8046V3.42456H19.3805Z" fill="white"/>
<path d="M30.8989 19.6087L30.2044 16.7678V6.37514C30.7336 6.12573 31.3146 6.00588 31.8993 6.02548C32.9434 6.02548 33.3902 6.62281 33.3902 8.08943V19.6087H37.8095L37.0956 16.7678V8.96358C37.0956 4.48601 35.0802 3.13594 32.8414 3.13594C32.1531 3.11858 31.4682 3.23741 30.826 3.4856L29.8548 5.10277L29.0826 3.43703H26.4941V19.6282L30.8989 19.6087Z" fill="white"/>
<path d="M81.8474 0.431885H76.2383L76.9522 3.268V13.782L76.2383 16.6036H80.6576V11.8929H81.8765C85.3294 11.8929 87.3205 10.1543 87.3205 6.17697C87.3205 2.1996 85.3294 0.431885 81.8474 0.431885ZM83.4646 6.91999C83.4646 8.68771 83.0178 9.18306 81.7503 9.18306H80.6284V3.38941H81.6823C82.9741 3.38941 83.4451 3.8362 83.4451 5.55535L83.4646 6.91999Z" fill="white"/>
<path d="M6.06904 3.42456H0.455078L1.16896 6.26068V16.7747L0.455078 19.6157H4.87437V14.8904H6.09333C9.55106 14.8904 11.5373 13.147 11.5373 9.16964C11.5373 5.19228 9.55105 3.42456 6.06904 3.42456ZM7.68621 9.91266C7.68621 11.6804 7.23457 12.1757 5.96706 12.1757H4.8501V6.40637H5.92335C7.21514 6.40637 7.69107 6.85315 7.69107 8.57231L7.68621 9.91266Z" fill="white"/>
<path d="M60.9896 6.26068L61.7035 3.42456H56.5995L57.3085 6.26068V9.8641H54.0013V6.26068L54.7152 3.42456H49.582L50.2959 6.26068V16.7747L49.582 19.6157H54.7152L54.0013 16.7747V12.8508H57.3085V16.7747L56.5995 19.6157H61.7035L60.9896 16.7747V6.26068Z" fill="white"/>
<path d="M61.7036 22.5913H0.455078V25.5683H61.7036V22.5913Z" fill="white"/>
<path d="M86.8834 19.6096H61.7031V22.5963H86.8834V19.6096Z" fill="white"/>
</svg>
