<svg width="20" height="20" viewBox="0 0 20 20" fill="none" xmlns="http://www.w3.org/2000/svg">
<rect width="20" height="20" rx="10" fill="#EC1C24"/>
<path d="M10 4.75C8.90639 4.75133 7.85796 5.18635 7.08466 5.95965C6.31136 6.73295 5.87633 7.78139 5.875 8.875C5.87371 9.76872 6.16568 10.6382 6.70612 11.35C6.70612 11.35 6.81862 11.4979 6.83669 11.5194L10 15.25L13.1646 11.5178C13.1813 11.4978 13.2939 11.3498 13.2939 11.3498L13.2945 11.349C13.8346 10.6374 14.1263 9.76832 14.125 8.875C14.1237 7.78139 13.6887 6.73295 12.9154 5.95965C12.1421 5.18635 11.0936 4.75133 10 4.75ZM10 10.375C9.70333 10.375 9.41332 10.287 9.16665 10.1222C8.91998 9.95738 8.72772 9.72311 8.61418 9.44903C8.50065 9.17494 8.47095 8.87334 8.52883 8.58236C8.5867 8.29139 8.72957 8.02412 8.93934 7.81434C9.14912 7.60456 9.4164 7.4617 9.70737 7.40382C9.99834 7.34594 10.2999 7.37565 10.574 7.48918C10.8481 7.60271 11.0824 7.79497 11.2472 8.04164C11.412 8.28832 11.5 8.57833 11.5 8.875C11.4996 9.27269 11.3414 9.65396 11.0602 9.93517C10.779 10.2164 10.3977 10.3746 10 10.375Z" fill="white"/>
</svg>
