<svg width="20" height="20" viewBox="0 0 20 20" fill="none" xmlns="http://www.w3.org/2000/svg">
<rect width="20" height="20" rx="10" fill="#EC1C24"/>
<path d="M10.2439 8.64144H9.94825L9.78349 5.98858C9.7497 5.45019 9.51525 4.94501 9.12766 4.57588C8.74008 4.20625 8.22842 4.00053 7.69667 4H6.30272C5.77098 4.00054 5.25931 4.20625 4.87172 4.57588C4.48414 4.94499 4.24969 5.45016 4.21589 5.98858L4.05114 8.64144H3.75544C3.52257 8.64197 3.33354 8.83375 3.33301 9.07001V11.2772C3.33354 11.5134 3.52257 11.7052 3.75544 11.7057H3.89062V12.46C3.89009 12.5736 3.93444 12.6829 4.01418 12.7632C4.09338 12.8441 4.2011 12.8891 4.31304 12.8886H6.57727V13.7586H6.0957C5.10985 13.7607 4.31095 14.5712 4.30878 15.5714C4.30878 15.8082 4.49782 16 4.73121 16C4.96461 16 5.15365 15.8082 5.15365 15.5714C5.15417 15.0438 5.57555 14.6163 6.09567 14.6157H6.57724V15.5714C6.57724 15.8082 6.76628 16 6.99967 16C7.23307 16 7.42211 15.8082 7.42211 15.5714V14.6157H7.90368C8.4238 14.6163 8.84516 15.0438 8.8457 15.5714C8.8457 15.8082 9.03474 16 9.26813 16C9.50153 16 9.69057 15.8082 9.69057 15.5714C9.68845 14.5713 8.88953 13.7608 7.90365 13.7586H7.42208V12.8886H9.68631C9.79825 12.8891 9.90597 12.8441 9.98517 12.7632C10.0649 12.6829 10.1093 12.5736 10.1087 12.46V11.7057H10.2439C10.4768 11.7052 10.6658 11.5134 10.6663 11.2772V9.07001C10.6658 8.83375 10.4768 8.64197 10.2439 8.64144ZM4.4482 10.8486H4.17784V9.4986H4.4482V10.8486ZM9.26391 12.0314H4.73545V11.7057H9.26391V12.0314ZM9.82152 10.8486H9.55116V9.4986H9.82152V10.8486Z" fill="white"/>
<path d="M16.2439 8.64144H15.9482L15.7835 5.98858C15.7497 5.45019 15.5152 4.94501 15.1277 4.57588C14.7401 4.20625 14.2284 4.00053 13.6967 4H12.3027C11.771 4.00054 11.2593 4.20625 10.8717 4.57588C10.4841 4.94499 10.2497 5.45016 10.2159 5.98858L10.0511 8.64144H9.75544C9.52257 8.64197 9.33354 8.83375 9.33301 9.07001V11.2772C9.33354 11.5134 9.52257 11.7052 9.75544 11.7057H9.89062V12.46C9.89009 12.5736 9.93444 12.6829 10.0142 12.7632C10.0934 12.8441 10.2011 12.8891 10.313 12.8886H12.5773V13.7586H12.0957C11.1098 13.7607 10.3109 14.5712 10.3088 15.5714C10.3088 15.8082 10.4978 16 10.7312 16C10.9646 16 11.1536 15.8082 11.1536 15.5714C11.1542 15.0438 11.5755 14.6163 12.0957 14.6157H12.5772V15.5714C12.5772 15.8082 12.7663 16 12.9997 16C13.2331 16 13.4221 15.8082 13.4221 15.5714V14.6157H13.9037C14.4238 14.6163 14.8452 15.0438 14.8457 15.5714C14.8457 15.8082 15.0347 16 15.2681 16C15.5015 16 15.6906 15.8082 15.6906 15.5714C15.6885 14.5713 14.8895 13.7608 13.9036 13.7586H13.4221V12.8886H15.6863C15.7983 12.8891 15.906 12.8441 15.9852 12.7632C16.0649 12.6829 16.1093 12.5736 16.1087 12.46V11.7057H16.2439C16.4768 11.7052 16.6658 11.5134 16.6663 11.2772V9.07001C16.6658 8.83375 16.4768 8.64197 16.2439 8.64144ZM10.4482 10.8486H10.1778V9.4986H10.4482V10.8486ZM15.2639 12.0314H10.7355V11.7057H15.2639V12.0314ZM15.8215 10.8486H15.5512V9.4986H15.8215V10.8486Z" fill="#BCBCBC"/>
</svg>
