<svg width="20" height="20" viewBox="0 0 20 20" fill="none" xmlns="http://www.w3.org/2000/svg">
<rect width="20" height="20" rx="10" fill="#EC1C24"/>
<path d="M13.5779 8.64144H13.2822L13.1175 5.98858C13.0837 5.45019 12.8492 4.94501 12.4616 4.57588C12.0741 4.20625 11.5624 4.00053 11.0307 4H9.6367C9.10497 4.00054 8.59329 4.20625 8.20571 4.57588C7.81813 4.94499 7.58367 5.45016 7.54988 5.98858L7.38512 8.64144H7.08942C6.85655 8.64197 6.66752 8.83375 6.66699 9.07001V11.2772C6.66752 11.5134 6.85655 11.7052 7.08942 11.7057H7.2246V12.46C7.22407 12.5736 7.26843 12.6829 7.34816 12.7632C7.42737 12.8441 7.53509 12.8891 7.64703 12.8886H9.91126V13.7586H9.42968C8.44383 13.7607 7.64493 14.5712 7.64277 15.5714C7.64277 15.8082 7.8318 16 8.0652 16C8.2986 16 8.48763 15.8082 8.48763 15.5714C8.48816 15.0438 8.90953 14.6163 9.42966 14.6157H9.91123V15.5714C9.91123 15.8082 10.1003 16 10.3337 16C10.5671 16 10.7561 15.8082 10.7561 15.5714V14.6157H11.2377C11.7578 14.6163 12.1791 15.0438 12.1797 15.5714C12.1797 15.8082 12.3687 16 12.6021 16C12.8355 16 13.0245 15.8082 13.0245 15.5714C13.0224 14.5713 12.2235 13.7608 11.2376 13.7586H10.7561V12.8886H13.0203C13.1322 12.8891 13.24 12.8441 13.3192 12.7632C13.3989 12.6829 13.4432 12.5736 13.4427 12.46V11.7057H13.5779C13.8108 11.7052 13.9998 11.5134 14.0003 11.2772V9.07001C13.9998 8.83375 13.8108 8.64197 13.5779 8.64144ZM7.78218 10.8486H7.51183V9.4986H7.78218V10.8486ZM12.5979 12.0314H8.06944V11.7057H12.5979V12.0314ZM13.1555 10.8486H12.8851V9.4986H13.1555V10.8486Z" fill="white"/>
</svg>
