<svg width="20" height="20" viewBox="0 0 20 20" fill="none" xmlns="http://www.w3.org/2000/svg">
<rect width="20" height="20" rx="10" fill="#EC1C24"/>
<g clip-path="url(#clip0_2769_27495)">
<path d="M3.875 14.0415H10.125V12.479C10.1243 11.8991 9.89364 11.343 9.48355 10.933C9.07346 10.5229 8.51745 10.2922 7.9375 10.2915H6.0625C5.48255 10.2922 4.92654 10.5229 4.51645 10.933C4.10636 11.343 3.87568 11.8991 3.875 12.479V14.0415Z" fill="white"/>
<path d="M4.8125 7.479C4.8125 7.91165 4.94079 8.33458 5.18116 8.69431C5.42153 9.05405 5.76317 9.33442 6.16288 9.49999C6.56259 9.66556 7.00243 9.70888 7.42676 9.62447C7.85109 9.54007 8.24087 9.33173 8.5468 9.0258C8.85272 8.71987 9.06106 8.3301 9.14547 7.90576C9.22987 7.48143 9.18655 7.0416 9.02099 6.64188C8.85542 6.24217 8.57504 5.90053 8.21531 5.66016C7.85558 5.4198 7.43265 5.2915 7 5.2915C6.41984 5.2915 5.86344 5.52197 5.4532 5.93221C5.04297 6.34244 4.8125 6.89884 4.8125 7.479Z" fill="white"/>
</g>
<path d="M15.6544 8.27651H15.4125L15.2777 6.21317C15.25 5.79443 15.0582 5.40151 14.7411 5.11441C14.424 4.82692 14.0053 4.66692 13.5703 4.6665H12.4298C11.9947 4.66692 11.5761 4.82692 11.2589 5.11441C10.9418 5.40149 10.75 5.79441 10.7224 6.21317L10.5876 8.27651H10.3456C10.1551 8.27693 10.0004 8.42609 10 8.60984V10.3265C10.0004 10.5103 10.1551 10.6594 10.3456 10.6598H10.4562V11.2465C10.4558 11.3348 10.4921 11.4198 10.5573 11.4823C10.6221 11.5452 10.7103 11.5802 10.8018 11.5798H12.6544V12.2565H12.2604C11.4538 12.2582 10.8001 12.8886 10.7984 13.6665C10.7984 13.8507 10.953 13.9998 11.144 13.9998C11.3349 13.9998 11.4896 13.8507 11.4896 13.6665C11.49 13.2561 11.8348 12.9236 12.2604 12.9232H12.6544V13.6665C12.6544 13.8507 12.809 13.9998 13 13.9998C13.191 13.9998 13.3456 13.8507 13.3456 13.6665V12.9232H13.7396C14.1652 12.9236 14.5099 13.2561 14.5104 13.6665C14.5104 13.8507 14.6651 13.9998 14.856 13.9998C15.047 13.9998 15.2016 13.8507 15.2016 13.6665C15.1999 12.8886 14.5462 12.2582 13.7396 12.2565H13.3456V11.5798H15.1982C15.2897 11.5802 15.3779 11.5452 15.4427 11.4823C15.5079 11.4198 15.5442 11.3348 15.5438 11.2465V10.6598H15.6544C15.8449 10.6594 15.9996 10.5103 16 10.3265V8.60984C15.9996 8.42609 15.8449 8.27693 15.6544 8.27651ZM10.9124 9.99319H10.6912V8.94319H10.9124V9.99319ZM14.8526 10.9132H11.1475V10.6598H14.8526V10.9132ZM15.3088 9.99319H15.0876V8.94319H15.3088V9.99319Z" fill="#BCBCBC"/>
<defs>
<clipPath id="clip0_2769_27495">
<rect width="10" height="10" fill="white" transform="translate(2 4.6665)"/>
</clipPath>
</defs>
</svg>
