<svg width="32" height="29" viewBox="0 0 32 29" fill="none" xmlns="http://www.w3.org/2000/svg">
<path d="M22.9205 9.99978C22.8798 9.99978 22.8798 9.99978 22.9205 9.99978H14.8797C14.5203 9.99978 14.2391 10.2795 14.2391 10.6404L14.2406 12.1201H11.6V10.6795C11.6 10.3201 11.3203 10.0388 10.9594 10.0388L0.64062 10.0404C0.360934 10.0404 0.120303 10.1998 0.0406236 10.4404C-1.4305e-07 10.4794 0 10.5607 0 10.6794V13.7201C0 13.7607 -1.4305e-07 13.7998 0.0406236 13.8404C0.0406236 13.881 0.0406239 13.9201 0.0812476 13.9607C0.0812476 14.0013 0.121871 14.0013 0.121871 14.0404C0.162495 14.081 0.162495 14.1201 0.242183 14.1607L0.282806 14.2013C0.32343 14.2419 0.403118 14.281 0.442182 14.281L13.7625 19.0402V19.1199C13.7625 24.1606 17.8421 28.2402 22.8829 28.2402C27.9204 28.2793 32 24.1606 32 19.1199C32 14.1199 27.9204 10.0406 22.9205 9.99978ZM22.8798 26.9605C18.5595 26.9605 15.0391 23.4402 15.0391 19.1197V18.6401V18.5994V18.4791C15.0391 18.4385 15.0391 18.3994 14.9984 18.3588C14.9984 18.3182 14.9578 18.2791 14.9188 18.2385C14.8781 18.1979 14.8781 18.1588 14.8391 18.1182C14.7984 18.0776 14.7984 18.0776 14.7594 18.0385C14.7188 17.9979 14.6797 17.9979 14.6391 17.9588H14.5984L1.27973 13.24V11.3197H10.2389V12.7604C10.2389 13.1197 10.5186 13.401 10.8795 13.401H14.8388C15.1982 13.401 15.4795 13.1213 15.4795 12.7604V11.3197H22.8386H22.8793C27.1996 11.3197 30.72 14.84 30.72 19.1605C30.72 23.4401 27.1997 26.9604 22.8793 26.9604L22.8798 26.9605Z" fill="white"/>
<path d="M22.8797 15.2793C20.7593 15.2793 19 16.9996 19 19.159C19 21.3183 20.7203 23.0386 22.8797 23.0386C25.039 23.0386 26.7593 21.3183 26.7593 19.159C26.7593 16.9996 25 15.2793 22.8797 15.2793ZM22.8797 21.7201C21.4797 21.7201 20.3203 20.5607 20.3203 19.1607C20.3203 17.7607 21.4797 16.6014 22.8797 16.6014C24.2796 16.6014 25.439 17.7607 25.439 19.1607C25.4406 20.5607 24.2796 21.7201 22.8797 21.7201Z" fill="white"/>
<path d="M13.5215 5.52021V0.640637C13.5215 0.281263 13.2418 0 12.8809 0C12.5215 0 12.2402 0.279687 12.2402 0.640637V5.52021C12.2402 5.87958 12.5199 6.16085 12.8809 6.16085C13.2418 6.16085 13.5215 5.8796 13.5215 5.52021Z" fill="white"/>
<path d="M9.84013 7.59974C9.9995 7.59974 10.1604 7.55911 10.2808 7.44036C10.5605 7.19974 10.5605 6.79972 10.3214 6.52004L7.08077 2.84039C6.84015 2.5607 6.44013 2.5607 6.16045 2.79976C5.88077 3.04038 5.88077 3.4404 6.11983 3.72008L9.36045 7.39974C9.4792 7.52005 9.64014 7.59974 9.84013 7.59974Z" fill="white"/>
<path d="M16.4407 7.39984L19.6813 3.72018C19.922 3.44049 19.8813 3.0405 19.6407 2.79986C19.361 2.55924 18.961 2.59986 18.7204 2.84049L15.4407 6.52015C15.2001 6.79983 15.2407 7.19982 15.4814 7.44046C15.6017 7.56077 15.761 7.59984 15.922 7.59984C16.1204 7.59984 16.2798 7.52015 16.4407 7.39984Z" fill="white"/>
</svg>
