<svg width="12" height="12" viewBox="0 0 12 12" fill="none" xmlns="http://www.w3.org/2000/svg">
<rect x="4.5" y="4.5" width="3" height="6" fill="black"/>
<path d="M6.00075 2.31428H5.99925L1.74327 10.4987L1.74398 10.5H10.256L10.2567 10.4987L6.00075 2.31428ZM5.57813 4.50001H6.42188V7.87501H5.57813V4.50001ZM6 9.75001C5.88875 9.75001 5.78 9.71702 5.68749 9.65521C5.59499 9.5934 5.5229 9.50555 5.48032 9.40277C5.43775 9.29998 5.42661 9.18688 5.44831 9.07777C5.47002 8.96865 5.52359 8.86843 5.60226 8.78976C5.68092 8.71109 5.78115 8.65752 5.89026 8.63581C5.99938 8.61411 6.11248 8.62525 6.21526 8.66782C6.31805 8.7104 6.4059 8.7825 6.4677 8.875C6.52951 8.9675 6.5625 9.07625 6.5625 9.18751C6.5625 9.33669 6.50324 9.47976 6.39775 9.58525C6.29226 9.69074 6.14919 9.75001 6 9.75001Z" fill="#F8B60E"/>
<path d="M10.875 11.25H1.125C1.06058 11.25 0.997235 11.2334 0.941088 11.2018C0.884941 11.1702 0.837881 11.1247 0.804447 11.0696C0.771013 11.0145 0.752332 10.9518 0.750204 10.8874C0.748077 10.823 0.762576 10.7591 0.792303 10.702L5.6673 1.32698C5.69897 1.26609 5.74673 1.21506 5.8054 1.17945C5.86406 1.14383 5.93137 1.125 6 1.125C6.06863 1.125 6.13594 1.14383 6.19461 1.17945C6.25327 1.21506 6.30104 1.26609 6.3327 1.32698L11.2077 10.702C11.2374 10.7591 11.2519 10.823 11.2498 10.8874C11.2477 10.9518 11.229 11.0145 11.1956 11.0696C11.1621 11.1247 11.1151 11.1702 11.0589 11.2018C11.0028 11.2334 10.9394 11.25 10.875 11.25ZM1.74398 10.5H10.256L10.2567 10.4987L6.00075 2.31428H5.99925L1.74327 10.4987L1.74398 10.5Z" fill="#F8B60E"/>
</svg>
