<svg width="20" height="20" viewBox="0 0 20 20" fill="none" xmlns="http://www.w3.org/2000/svg">
<rect x="5" y="3.75" width="10" height="12.5" fill="#1F1F1F"/>
<path d="M9.99999 1.25C8.2694 1.25 6.57768 1.76318 5.13875 2.72464C3.69982 3.6861 2.57831 5.05267 1.91604 6.65152C1.25378 8.25037 1.0805 10.0097 1.41812 11.707C1.75574 13.4044 2.58909 14.9635 3.8128 16.1872C5.03651 17.4109 6.59561 18.2442 8.29295 18.5819C9.99028 18.9195 11.7496 18.7462 13.3485 18.0839C14.9473 17.4217 16.3139 16.3002 17.2753 14.8612C18.2368 13.4223 18.75 11.7306 18.75 10C18.75 7.67936 17.8281 5.45376 16.1872 3.81282C14.5462 2.17187 12.3206 1.25 9.99999 1.25ZM9.99999 5C10.1854 5 10.3667 5.05498 10.5208 5.158C10.675 5.26101 10.7952 5.40743 10.8661 5.57873C10.9371 5.75004 10.9556 5.93854 10.9195 6.1204C10.8833 6.30225 10.794 6.4693 10.6629 6.60041C10.5318 6.73152 10.3647 6.82081 10.1829 6.85699C10.001 6.89316 9.81253 6.87459 9.64122 6.80364C9.46992 6.73268 9.3235 6.61252 9.22049 6.45835C9.11747 6.30418 9.06249 6.12292 9.06249 5.9375C9.06249 5.68886 9.16126 5.4504 9.33708 5.27459C9.51289 5.09877 9.75135 5 9.99999 5ZM12.5 15.0781H7.49999V13.6719H9.29686V10.0781H8.12499V8.67188H10.7031V13.6719H12.5V15.0781Z" fill="white"/>
</svg>
