<svg width="30" height="31" viewBox="0 0 30 31" fill="none" xmlns="http://www.w3.org/2000/svg">
<rect y="0.25" width="30" height="30" rx="15" fill="white"/>
<path fill-rule="evenodd" clip-rule="evenodd" d="M12.8145 19.4044C12.8145 18.0947 12.8071 16.785 12.8219 15.4753C12.8219 15.2533 12.7627 15.1867 12.5407 15.1941C12.1337 15.2089 11.7268 15.1941 11.3124 15.2015C11.1496 15.2089 11.083 15.1571 11.0904 14.9869C11.0978 14.1729 11.0978 13.3516 11.0904 12.5376C11.0904 12.3822 11.1348 12.3304 11.2976 12.3304C11.712 12.3378 12.1337 12.3156 12.5481 12.3378C12.7923 12.3526 12.8367 12.2638 12.8367 12.0419C12.8219 11.4203 12.8219 10.7987 12.8367 10.1772C12.8515 9.41501 13.0587 8.70465 13.5101 8.09048C14.0798 7.30613 14.8938 6.95095 15.8335 6.90655C16.7955 6.86215 17.7648 6.88435 18.7342 6.87695C18.8673 6.87695 18.9117 6.92135 18.9117 7.05454C18.9043 7.8833 18.9043 8.71205 18.9117 9.5334C18.9117 9.68139 18.8674 9.72579 18.7194 9.72579C18.2532 9.71839 17.787 9.71839 17.3282 9.72579C16.7067 9.72579 16.3367 10.044 16.2997 10.6581C16.2701 11.1465 16.2923 11.6423 16.2775 12.1381C16.2701 12.3156 16.3811 12.3008 16.4921 12.3008C17.195 12.3008 17.9054 12.3082 18.6084 12.2934C18.8156 12.2934 18.8821 12.3378 18.86 12.5524C18.7712 13.3738 18.6972 14.1951 18.6232 15.0239C18.6084 15.2089 18.5196 15.2459 18.3568 15.2459C17.8018 15.2385 17.2394 15.2385 16.6845 15.2459C16.2849 15.2459 16.3219 15.1867 16.3219 15.5937C16.3219 18.1613 16.3145 20.7216 16.3293 23.2892C16.3293 23.563 16.2627 23.6296 15.9963 23.6222C15.0418 23.6074 14.0798 23.6074 13.1253 23.6222C12.8589 23.6296 12.8145 23.5334 12.8145 23.2966C12.8145 21.9869 12.8145 20.6994 12.8145 19.4044Z" fill="#474747"/>
</svg>
