<svg width="32" height="31" viewBox="0 0 32 31" fill="none" xmlns="http://www.w3.org/2000/svg">
<path d="M15.9949 30.25C7.72315 30.2482 1.02558 23.5576 1.00007 15.3003C0.974566 6.94787 7.74943 0.230719 16.0369 0.250042C24.2911 0.269364 31.0307 6.97596 30.9995 15.3098C30.9686 23.5679 24.2669 30.2536 15.9949 30.25ZM2.23828 15.789C2.23828 15.849 2.2339 15.8959 2.23906 15.9415C2.29857 16.4957 2.33361 17.0543 2.42481 17.6033C2.74557 19.5364 3.47108 21.3115 4.56193 22.9385C4.60392 23.0011 4.63767 23.0232 4.71651 22.9903C6.02351 22.442 7.38255 22.0689 8.76942 21.7909C8.96523 21.7518 9.16103 21.7121 9.32927 21.6784C9.17675 20.6875 8.99769 19.7167 8.88536 18.7384C8.77303 17.7607 8.72743 16.7755 8.6522 15.789H2.23828ZM23.3142 15.7895C23.275 17.7764 23.066 19.734 22.6368 21.6472C23.4522 21.8412 24.2558 22.005 25.0429 22.2274C25.8328 22.4505 26.6063 22.7316 27.4021 22.9923C28.8642 20.8318 29.6577 18.429 29.7695 15.7893H23.3142V15.7895ZM23.3103 14.549H29.7732C29.7343 14.17 29.7051 13.8026 29.658 13.4375C29.3815 11.3009 28.629 9.34365 27.4335 7.55332C27.3802 7.47345 27.3364 7.4598 27.2475 7.49716C26.0003 8.02094 24.7028 8.3788 23.3806 8.65241C23.1341 8.70342 22.8867 8.7516 22.6247 8.8039C23.0537 10.7001 23.2634 12.6118 23.3103 14.5487V14.549ZM8.69007 14.5531C8.73593 12.6084 8.94848 10.697 9.37487 8.80313C9.28315 8.78484 9.20818 8.76938 9.13321 8.75495C7.65462 8.47283 6.20257 8.09746 4.8072 7.52241C4.63535 7.45156 4.63613 7.45207 4.53024 7.61155C3.2338 9.56445 2.48227 11.7085 2.27255 14.043C2.25735 14.2115 2.25013 14.3807 2.23906 14.5531H8.69007ZM9.90947 15.7918C9.94683 17.7123 10.1522 19.6036 10.5796 21.4802C12.1793 21.2579 13.7735 21.1438 15.3789 21.1183V15.7916H9.90947V15.7918ZM16.6112 15.7911C16.6112 15.8493 16.6112 15.8918 16.6112 15.9343C16.6112 17.6128 16.6127 19.2911 16.6083 20.9696C16.6081 21.0976 16.648 21.1234 16.7681 21.125C18.0521 21.1432 19.3323 21.2265 20.6079 21.3777C20.8753 21.4094 21.1425 21.4431 21.4218 21.4771C21.8472 19.6005 22.0551 17.7097 22.0899 15.7911H16.6112ZM9.91256 14.5505H15.3817V9.37354C14.5779 9.33154 13.781 9.30398 12.9862 9.24446C12.1873 9.18469 11.3909 9.09297 10.5811 9.01388C10.1658 10.8289 9.9592 12.6744 9.91256 14.5505ZM21.4143 8.99404C19.8146 9.21741 18.2206 9.32845 16.6199 9.35628V14.548H22.0881C22.0401 12.6703 21.8345 10.8248 21.4143 8.99404ZM16.6199 28.9499C16.6691 28.9378 16.7127 28.9342 16.75 28.917C17.0226 28.7931 17.3091 28.6913 17.5626 28.5362C18.2559 28.1121 18.7797 27.5108 19.2368 26.8486C19.9594 25.8016 20.4647 24.6489 20.8689 23.4486C20.9537 23.1971 21.0297 22.9431 21.115 22.6734C19.6155 22.466 18.1253 22.3655 16.6197 22.34V28.9497L16.6199 28.9499ZM15.3807 28.9518V22.3405C13.8753 22.3655 12.3851 22.4665 10.8852 22.6736C10.9702 22.9426 11.0464 23.1969 11.1312 23.4481C11.5426 24.6688 12.0574 25.8405 12.7999 26.901C13.249 27.5422 13.7676 28.1157 14.4344 28.5406C14.725 28.7255 15.0339 28.8693 15.3807 28.952V28.9518ZM15.3815 1.55163C15.3312 1.56348 15.2936 1.57018 15.257 1.581C14.8404 1.70518 14.4671 1.9131 14.1239 2.17641C13.5311 2.6314 13.0596 3.1964 12.6518 3.81705C11.8549 5.03027 11.3244 6.36174 10.9137 7.74604C10.9094 7.76098 10.9109 7.77747 10.9096 7.79215C11.4347 7.93463 15.0079 8.19407 15.3815 8.11601V1.55137V1.55163ZM16.6207 1.5506V8.13352C18.1235 8.10828 19.6101 8.0078 21.0889 7.80452C21.0889 7.77876 21.092 7.76536 21.0884 7.75402C21.0335 7.57342 20.9805 7.3923 20.9215 7.21298C20.5025 5.9351 19.9752 4.70848 19.2002 3.60063C18.7514 2.95911 18.2325 2.38535 17.5655 1.96102C17.2748 1.77604 16.9662 1.63176 16.6204 1.55086L16.6207 1.5506ZM22.3253 7.61232C23.7861 7.34695 25.2101 6.99785 26.5996 6.44548C25.5347 5.1663 24.3032 4.119 22.8808 3.29765C21.7949 2.67056 20.6442 2.20268 19.4218 1.90743C20.8913 3.54988 21.7021 5.52313 22.3253 7.61258V7.61232ZM12.576 1.90588C9.69847 2.64376 7.31969 4.16254 5.39719 6.44522C6.79874 6.99837 8.22194 7.35108 9.67528 7.61078C10.298 5.52262 11.1088 3.54936 12.576 1.90614V1.90588ZM19.4174 28.5993C22.3052 27.8176 24.6915 26.3122 26.6142 24.0414C26.5581 24.0154 26.5282 23.9994 26.497 23.9873C25.1807 23.4738 23.8165 23.1371 22.4307 22.879C22.3498 22.864 22.3202 22.8887 22.2965 22.9663C22.1754 23.3597 22.0564 23.7544 21.9198 24.1427C21.4677 25.4273 20.8954 26.6531 20.0883 27.7576C19.884 28.0369 19.6575 28.2997 19.4176 28.5993H19.4174ZM12.5565 28.5761C11.0944 26.9257 10.2872 24.9511 9.66755 22.8643C8.20725 23.1271 6.77788 23.4798 5.38044 24.0368C7.31273 26.3141 9.69769 27.8199 12.5567 28.5761H12.5565Z" fill="white" stroke="white" stroke-width="0.5"/>
</svg>
