<svg width="12" height="13" viewBox="0 0 12 13" fill="none" xmlns="http://www.w3.org/2000/svg">
<path d="M9.75 3.125H9V2.75C8.99977 2.55116 8.92068 2.36052 8.78008 2.21992C8.63948 2.07932 8.44884 2.00023 8.25 2H3.75C3.55116 2.00023 3.36053 2.07932 3.21992 2.21992C3.07932 2.36052 3.00023 2.55116 3 2.75V3.125H2.25C2.05116 3.12523 1.86052 3.20432 1.71992 3.34492C1.57932 3.48552 1.50023 3.67616 1.5 3.875V5C1.50045 5.39769 1.65863 5.77896 1.93983 6.06017C2.22104 6.34137 2.60231 6.49955 3 6.5H3.12075C3.277 7.07403 3.59702 7.59013 4.04173 7.9853C4.48644 8.38047 5.03659 8.6376 5.625 8.72529V10.25H3.75V11H8.25V10.25H6.375V8.72416C6.97105 8.65047 7.53105 8.39882 7.98193 8.00206C8.4328 7.6053 8.75361 7.08184 8.9025 6.5H9C9.39769 6.49955 9.77896 6.34137 10.0602 6.06017C10.3414 5.77896 10.4996 5.39769 10.5 5V3.875C10.4998 3.67616 10.4207 3.48552 10.2801 3.34492C10.1395 3.20432 9.94884 3.12523 9.75 3.125ZM3 5.75C2.80116 5.74977 2.61052 5.67068 2.46992 5.53008C2.32932 5.38947 2.25023 5.19884 2.25 5V3.875H3V5.75ZM8.25 5.75C8.25 6.05133 8.18947 6.34959 8.07201 6.62708C7.95454 6.90457 7.78254 7.15564 7.5662 7.36539C7.34986 7.57514 7.09359 7.7393 6.8126 7.84813C6.53161 7.95695 6.23162 8.00823 5.93044 7.99891C5.33326 7.96187 4.77335 7.696 4.36722 7.25662C3.9611 6.81724 3.74002 6.23818 3.75 5.63994V2.75H8.25V5.75ZM9.75 5C9.74977 5.19884 9.67068 5.38947 9.53008 5.53008C9.38948 5.67068 9.19884 5.74977 9 5.75V3.875H9.75V5Z" fill="white"/>
</svg>
