<svg width="28" height="29" viewBox="0 0 28 29" fill="none" xmlns="http://www.w3.org/2000/svg">
<path d="M27.5 14.5C27.5 21.9564 21.4564 28 14 28C6.54358 28 0.5 21.9564 0.5 14.5C0.5 7.04358 6.54358 1 14 1C21.4564 1 27.5 7.04358 27.5 14.5Z" stroke="white"/>
<g clip-path="url(#clip0_2439_3861)">
<path d="M15.1899 13.3732L20.5328 7.16248H19.2667L14.6275 12.5551L10.9221 7.16248H6.64844L12.2516 15.3171L6.64844 21.83H7.9146L12.8138 16.1352L16.7269 21.83H21.0005L15.1896 13.3732H15.1899ZM13.4557 15.389L12.888 14.577L8.37082 8.11563H10.3156L13.961 13.3301L14.5287 14.1421L19.2673 20.9202H17.3225L13.4557 15.3893V15.389Z" fill="white"/>
</g>
<defs>
<clipPath id="clip0_2439_3861">
<rect width="14.3521" height="14.675" fill="white" transform="translate(6.64844 7.16248)"/>
</clipPath>
</defs>
</svg>
